%FSLAX45Y45*%
G04 Gerber Fmt 4.5, Leading zero omitted, Abs format (unit mm)*
G04 Created by KiCad (PCBNEW (5.1.5)-3) date 2020-06-08 21:11:43*
%MOMM*%
%LPD*%
G04 APERTURE LIST*
%TA.AperFunction,Profile*%
%ADD10C,0.150000*%
%TD*%
%ADD11C,0.200000*%
%ADD12C,0.300000*%
G04 APERTURE END LIST*
D10*
X17500000Y-5450000D02*
X17500000Y-12350000D01*
X17400000Y-12100000D02*
G75*
G03X17400000Y-12100000I-150000J0D01*
G01*
X8350000Y-12350000D02*
X8350000Y-12250000D01*
X17500000Y-12350000D02*
X8350000Y-12350000D01*
X8350000Y-12150000D02*
X8350000Y-12250000D01*
X8350000Y-5450000D02*
X17500000Y-5450000D01*
X8350000Y-12150000D02*
X8350000Y-5450000D01*
X8750000Y-12100000D02*
G75*
G03X8750000Y-12100000I-150000J0D01*
G01*
D11*
X9189340Y-8268150D02*
X9229340Y-8308150D01*
X9229340Y-8268150D02*
X9189340Y-8308150D01*
X12685400Y-10406370D02*
X12725400Y-10446370D01*
X12725400Y-10406370D02*
X12685400Y-10446370D01*
X12849170Y-10359050D02*
X12889170Y-10399050D01*
X12889170Y-10359050D02*
X12849170Y-10399050D01*
X10578500Y-7874000D02*
G75*
G03X10578500Y-7874000I-37500J0D01*
G01*
X10706500Y-7747000D02*
G75*
G03X10706500Y-7747000I-37500J0D01*
G01*
X10832500Y-7874000D02*
G75*
G03X10832500Y-7874000I-37500J0D01*
G01*
X8673500Y-7874000D02*
G75*
G03X8673500Y-7874000I-37500J0D01*
G01*
X8801500Y-7747000D02*
G75*
G03X8801500Y-7747000I-37500J0D01*
G01*
X8927500Y-7874000D02*
G75*
G03X8927500Y-7874000I-37500J0D01*
G01*
X9943500Y-7874000D02*
G75*
G03X9943500Y-7874000I-37500J0D01*
G01*
X10071500Y-7747000D02*
G75*
G03X10071500Y-7747000I-37500J0D01*
G01*
X10197500Y-7874000D02*
G75*
G03X10197500Y-7874000I-37500J0D01*
G01*
X12864500Y-7874000D02*
G75*
G03X12864500Y-7874000I-37500J0D01*
G01*
X12992500Y-7747000D02*
G75*
G03X12992500Y-7747000I-37500J0D01*
G01*
X13118500Y-7874000D02*
G75*
G03X13118500Y-7874000I-37500J0D01*
G01*
X14134500Y-7874000D02*
G75*
G03X14134500Y-7874000I-37500J0D01*
G01*
X14262500Y-7747000D02*
G75*
G03X14262500Y-7747000I-37500J0D01*
G01*
X14388500Y-7874000D02*
G75*
G03X14388500Y-7874000I-37500J0D01*
G01*
X12229500Y-7874000D02*
G75*
G03X12229500Y-7874000I-37500J0D01*
G01*
X12357500Y-7747000D02*
G75*
G03X12357500Y-7747000I-37500J0D01*
G01*
X12483500Y-7874000D02*
G75*
G03X12483500Y-7874000I-37500J0D01*
G01*
X9308500Y-7874000D02*
G75*
G03X9308500Y-7874000I-37500J0D01*
G01*
X9436500Y-7747000D02*
G75*
G03X9436500Y-7747000I-37500J0D01*
G01*
X9562500Y-7874000D02*
G75*
G03X9562500Y-7874000I-37500J0D01*
G01*
X13499500Y-7874000D02*
G75*
G03X13499500Y-7874000I-37500J0D01*
G01*
X13627500Y-7747000D02*
G75*
G03X13627500Y-7747000I-37500J0D01*
G01*
X13753500Y-7874000D02*
G75*
G03X13753500Y-7874000I-37500J0D01*
G01*
X11684000Y-8146000D02*
X11684000Y-8226000D01*
X11644000Y-8186000D02*
X11724000Y-8186000D01*
X11684000Y-9416000D02*
X11684000Y-9496000D01*
X11644000Y-9456000D02*
X11724000Y-9456000D01*
X16129000Y-7790000D02*
X16129000Y-7870000D01*
X16089000Y-7830000D02*
X16169000Y-7830000D01*
X17399000Y-7790000D02*
X17399000Y-7870000D01*
X17359000Y-7830000D02*
X17439000Y-7830000D01*
X8509000Y-10501000D02*
X8509000Y-10581000D01*
X8469000Y-10541000D02*
X8549000Y-10541000D01*
X9779000Y-10501000D02*
X9779000Y-10581000D01*
X9739000Y-10541000D02*
X9819000Y-10541000D01*
X13426800Y-5671200D02*
X13426800Y-5751200D01*
X13386800Y-5711200D02*
X13466800Y-5711200D01*
X13426800Y-7195200D02*
X13426800Y-7275200D01*
X13386800Y-7235200D02*
X13466800Y-7235200D01*
X13680800Y-5671200D02*
X13680800Y-5751200D01*
X13640800Y-5711200D02*
X13720800Y-5711200D01*
X13680800Y-7195200D02*
X13680800Y-7275200D01*
X13640800Y-7235200D02*
X13720800Y-7235200D01*
X13934800Y-5671200D02*
X13934800Y-5751200D01*
X13894800Y-5711200D02*
X13974800Y-5711200D01*
X13934800Y-7195200D02*
X13934800Y-7275200D01*
X13894800Y-7235200D02*
X13974800Y-7235200D01*
X14188800Y-5671200D02*
X14188800Y-5751200D01*
X14148800Y-5711200D02*
X14228800Y-5711200D01*
X14188800Y-7195200D02*
X14188800Y-7275200D01*
X14148800Y-7235200D02*
X14228800Y-7235200D01*
X14442800Y-5671200D02*
X14442800Y-5751200D01*
X14402800Y-5711200D02*
X14482800Y-5711200D01*
X14442800Y-7195200D02*
X14442800Y-7275200D01*
X14402800Y-7235200D02*
X14482800Y-7235200D01*
X9906600Y-5671200D02*
X9906600Y-5751200D01*
X9866600Y-5711200D02*
X9946600Y-5711200D01*
X9906600Y-7195200D02*
X9906600Y-7275200D01*
X9866600Y-7235200D02*
X9946600Y-7235200D01*
X10160600Y-5671200D02*
X10160600Y-5751200D01*
X10120600Y-5711200D02*
X10200600Y-5711200D01*
X10160600Y-7195200D02*
X10160600Y-7275200D01*
X10120600Y-7235200D02*
X10200600Y-7235200D01*
X10414600Y-5671200D02*
X10414600Y-5751200D01*
X10374600Y-5711200D02*
X10454600Y-5711200D01*
X10414600Y-7195200D02*
X10414600Y-7275200D01*
X10374600Y-7235200D02*
X10454600Y-7235200D01*
X10668600Y-5671200D02*
X10668600Y-5751200D01*
X10628600Y-5711200D02*
X10708600Y-5711200D01*
X10668600Y-7195200D02*
X10668600Y-7275200D01*
X10628600Y-7235200D02*
X10708600Y-7235200D01*
X10922600Y-5671200D02*
X10922600Y-5751200D01*
X10882600Y-5711200D02*
X10962600Y-5711200D01*
X10922600Y-7195200D02*
X10922600Y-7275200D01*
X10882600Y-7235200D02*
X10962600Y-7235200D01*
X9893000Y-8441200D02*
X9893000Y-8521200D01*
X9853000Y-8481200D02*
X9933000Y-8481200D01*
X9893000Y-9965200D02*
X9893000Y-10045200D01*
X9853000Y-10005200D02*
X9933000Y-10005200D01*
X10147000Y-8441200D02*
X10147000Y-8521200D01*
X10107000Y-8481200D02*
X10187000Y-8481200D01*
X10147000Y-9965200D02*
X10147000Y-10045200D01*
X10107000Y-10005200D02*
X10187000Y-10005200D01*
X10401000Y-8441200D02*
X10401000Y-8521200D01*
X10361000Y-8481200D02*
X10441000Y-8481200D01*
X10401000Y-9965200D02*
X10401000Y-10045200D01*
X10361000Y-10005200D02*
X10441000Y-10005200D01*
X10655000Y-8441200D02*
X10655000Y-8521200D01*
X10615000Y-8481200D02*
X10695000Y-8481200D01*
X10655000Y-9965200D02*
X10655000Y-10045200D01*
X10615000Y-10005200D02*
X10695000Y-10005200D01*
X10909000Y-8441200D02*
X10909000Y-8521200D01*
X10869000Y-8481200D02*
X10949000Y-8481200D01*
X10909000Y-9965200D02*
X10909000Y-10045200D01*
X10869000Y-10005200D02*
X10949000Y-10005200D01*
X13335000Y-10628000D02*
X13335000Y-10708000D01*
X13295000Y-10668000D02*
X13375000Y-10668000D01*
X13335000Y-12152000D02*
X13335000Y-12232000D01*
X13295000Y-12192000D02*
X13375000Y-12192000D01*
X13589000Y-10628000D02*
X13589000Y-10708000D01*
X13549000Y-10668000D02*
X13629000Y-10668000D01*
X13589000Y-12152000D02*
X13589000Y-12232000D01*
X13549000Y-12192000D02*
X13629000Y-12192000D01*
X13843000Y-10628000D02*
X13843000Y-10708000D01*
X13803000Y-10668000D02*
X13883000Y-10668000D01*
X13843000Y-12152000D02*
X13843000Y-12232000D01*
X13803000Y-12192000D02*
X13883000Y-12192000D01*
X14097000Y-10628000D02*
X14097000Y-10708000D01*
X14057000Y-10668000D02*
X14137000Y-10668000D01*
X14097000Y-12152000D02*
X14097000Y-12232000D01*
X14057000Y-12192000D02*
X14137000Y-12192000D01*
X14351000Y-10628000D02*
X14351000Y-10708000D01*
X14311000Y-10668000D02*
X14391000Y-10668000D01*
X14351000Y-12152000D02*
X14351000Y-12232000D01*
X14311000Y-12192000D02*
X14391000Y-12192000D01*
X14605000Y-10628000D02*
X14605000Y-10708000D01*
X14565000Y-10668000D02*
X14645000Y-10668000D01*
X14605000Y-12152000D02*
X14605000Y-12232000D01*
X14565000Y-12192000D02*
X14645000Y-12192000D01*
X14859000Y-10628000D02*
X14859000Y-10708000D01*
X14819000Y-10668000D02*
X14899000Y-10668000D01*
X14859000Y-12152000D02*
X14859000Y-12232000D01*
X14819000Y-12192000D02*
X14899000Y-12192000D01*
X15113000Y-10628000D02*
X15113000Y-10708000D01*
X15073000Y-10668000D02*
X15153000Y-10668000D01*
X15113000Y-12152000D02*
X15113000Y-12232000D01*
X15073000Y-12192000D02*
X15153000Y-12192000D01*
X15367000Y-10628000D02*
X15367000Y-10708000D01*
X15327000Y-10668000D02*
X15407000Y-10668000D01*
X15367000Y-12152000D02*
X15367000Y-12232000D01*
X15327000Y-12192000D02*
X15407000Y-12192000D01*
X15621000Y-10628000D02*
X15621000Y-10708000D01*
X15581000Y-10668000D02*
X15661000Y-10668000D01*
X15621000Y-12152000D02*
X15621000Y-12232000D01*
X15581000Y-12192000D02*
X15661000Y-12192000D01*
X15875000Y-10628000D02*
X15875000Y-10708000D01*
X15835000Y-10668000D02*
X15915000Y-10668000D01*
X15875000Y-12152000D02*
X15875000Y-12232000D01*
X15835000Y-12192000D02*
X15915000Y-12192000D01*
X16129000Y-10628000D02*
X16129000Y-10708000D01*
X16089000Y-10668000D02*
X16169000Y-10668000D01*
X16129000Y-12152000D02*
X16129000Y-12232000D01*
X16089000Y-12192000D02*
X16169000Y-12192000D01*
X16383000Y-10628000D02*
X16383000Y-10708000D01*
X16343000Y-10668000D02*
X16423000Y-10668000D01*
X16383000Y-12152000D02*
X16383000Y-12232000D01*
X16343000Y-12192000D02*
X16423000Y-12192000D01*
X16637000Y-10628000D02*
X16637000Y-10708000D01*
X16597000Y-10668000D02*
X16677000Y-10668000D01*
X16637000Y-12152000D02*
X16637000Y-12232000D01*
X16597000Y-12192000D02*
X16677000Y-12192000D01*
X16891000Y-10628000D02*
X16891000Y-10708000D01*
X16851000Y-10668000D02*
X16931000Y-10668000D01*
X16891000Y-12152000D02*
X16891000Y-12232000D01*
X16851000Y-12192000D02*
X16931000Y-12192000D01*
X16130000Y-10210000D02*
X16130000Y-10290000D01*
X16090000Y-10250000D02*
X16170000Y-10250000D01*
X17400000Y-10210000D02*
X17400000Y-10290000D01*
X17360000Y-10250000D02*
X17440000Y-10250000D01*
X16129000Y-8990000D02*
X16129000Y-9070000D01*
X16089000Y-9030000D02*
X16169000Y-9030000D01*
X17399000Y-8990000D02*
X17399000Y-9070000D01*
X17359000Y-9030000D02*
X17439000Y-9030000D01*
X10033000Y-10501000D02*
X10033000Y-10581000D01*
X9993000Y-10541000D02*
X10073000Y-10541000D01*
X11303000Y-10501000D02*
X11303000Y-10581000D01*
X11263000Y-10541000D02*
X11343000Y-10541000D01*
X8509000Y-10882000D02*
X8509000Y-10962000D01*
X8469000Y-10922000D02*
X8549000Y-10922000D01*
X9779000Y-10882000D02*
X9779000Y-10962000D01*
X9739000Y-10922000D02*
X9819000Y-10922000D01*
X8521400Y-8441200D02*
X8521400Y-8521200D01*
X8481400Y-8481200D02*
X8561400Y-8481200D01*
X8521400Y-9965200D02*
X8521400Y-10045200D01*
X8481400Y-10005200D02*
X8561400Y-10005200D01*
X8775400Y-8441200D02*
X8775400Y-8521200D01*
X8735400Y-8481200D02*
X8815400Y-8481200D01*
X8775400Y-9965200D02*
X8775400Y-10045200D01*
X8735400Y-10005200D02*
X8815400Y-10005200D01*
X9029400Y-8441200D02*
X9029400Y-8521200D01*
X8989400Y-8481200D02*
X9069400Y-8481200D01*
X9029400Y-9965200D02*
X9029400Y-10045200D01*
X8989400Y-10005200D02*
X9069400Y-10005200D01*
X9283400Y-8441200D02*
X9283400Y-8521200D01*
X9243400Y-8481200D02*
X9323400Y-8481200D01*
X9283400Y-9965200D02*
X9283400Y-10045200D01*
X9243400Y-10005200D02*
X9323400Y-10005200D01*
X9537400Y-8441200D02*
X9537400Y-8521200D01*
X9497400Y-8481200D02*
X9577400Y-8481200D01*
X9537400Y-9965200D02*
X9537400Y-10045200D01*
X9497400Y-10005200D02*
X9577400Y-10005200D01*
X15113000Y-5675000D02*
X15113000Y-5755000D01*
X15073000Y-5715000D02*
X15153000Y-5715000D01*
X15113000Y-5929000D02*
X15113000Y-6009000D01*
X15073000Y-5969000D02*
X15153000Y-5969000D01*
X15113000Y-6183000D02*
X15113000Y-6263000D01*
X15073000Y-6223000D02*
X15153000Y-6223000D01*
X15113000Y-6437000D02*
X15113000Y-6517000D01*
X15073000Y-6477000D02*
X15153000Y-6477000D01*
X15113000Y-6691000D02*
X15113000Y-6771000D01*
X15073000Y-6731000D02*
X15153000Y-6731000D01*
X15113000Y-6945000D02*
X15113000Y-7025000D01*
X15073000Y-6985000D02*
X15153000Y-6985000D01*
X15113000Y-7199000D02*
X15113000Y-7279000D01*
X15073000Y-7239000D02*
X15153000Y-7239000D01*
X15113000Y-7453000D02*
X15113000Y-7533000D01*
X15073000Y-7493000D02*
X15153000Y-7493000D01*
X15875000Y-5675000D02*
X15875000Y-5755000D01*
X15835000Y-5715000D02*
X15915000Y-5715000D01*
X15875000Y-5929000D02*
X15875000Y-6009000D01*
X15835000Y-5969000D02*
X15915000Y-5969000D01*
X15875000Y-6183000D02*
X15875000Y-6263000D01*
X15835000Y-6223000D02*
X15915000Y-6223000D01*
X15875000Y-6437000D02*
X15875000Y-6517000D01*
X15835000Y-6477000D02*
X15915000Y-6477000D01*
X15875000Y-6691000D02*
X15875000Y-6771000D01*
X15835000Y-6731000D02*
X15915000Y-6731000D01*
X15875000Y-6945000D02*
X15875000Y-7025000D01*
X15835000Y-6985000D02*
X15915000Y-6985000D01*
X15875000Y-7199000D02*
X15875000Y-7279000D01*
X15835000Y-7239000D02*
X15915000Y-7239000D01*
X15875000Y-7453000D02*
X15875000Y-7533000D01*
X15835000Y-7493000D02*
X15915000Y-7493000D01*
X11684000Y-11009000D02*
X11684000Y-11089000D01*
X11644000Y-11049000D02*
X11724000Y-11049000D01*
X11684000Y-12025000D02*
X11684000Y-12105000D01*
X11644000Y-12065000D02*
X11724000Y-12065000D01*
X11938000Y-11009000D02*
X11938000Y-11089000D01*
X11898000Y-11049000D02*
X11978000Y-11049000D01*
X11938000Y-12025000D02*
X11938000Y-12105000D01*
X11898000Y-12065000D02*
X11978000Y-12065000D01*
X12192000Y-11009000D02*
X12192000Y-11089000D01*
X12152000Y-11049000D02*
X12232000Y-11049000D01*
X12192000Y-12025000D02*
X12192000Y-12105000D01*
X12152000Y-12065000D02*
X12232000Y-12065000D01*
X12446000Y-11009000D02*
X12446000Y-11089000D01*
X12406000Y-11049000D02*
X12486000Y-11049000D01*
X12446000Y-12025000D02*
X12446000Y-12105000D01*
X12406000Y-12065000D02*
X12486000Y-12065000D01*
X8509000Y-11644000D02*
X8509000Y-11724000D01*
X8469000Y-11684000D02*
X8549000Y-11684000D01*
X9779000Y-11644000D02*
X9779000Y-11724000D01*
X9739000Y-11684000D02*
X9819000Y-11684000D01*
X10033000Y-10882000D02*
X10033000Y-10962000D01*
X9993000Y-10922000D02*
X10073000Y-10922000D01*
X11303000Y-10882000D02*
X11303000Y-10962000D01*
X11263000Y-10922000D02*
X11343000Y-10922000D01*
X13423900Y-8443600D02*
X13423900Y-8523600D01*
X13383900Y-8483600D02*
X13463900Y-8483600D01*
X13423900Y-9967600D02*
X13423900Y-10047600D01*
X13383900Y-10007600D02*
X13463900Y-10007600D01*
X13677900Y-8443600D02*
X13677900Y-8523600D01*
X13637900Y-8483600D02*
X13717900Y-8483600D01*
X13677900Y-9967600D02*
X13677900Y-10047600D01*
X13637900Y-10007600D02*
X13717900Y-10007600D01*
X13931900Y-8443600D02*
X13931900Y-8523600D01*
X13891900Y-8483600D02*
X13971900Y-8483600D01*
X13931900Y-9967600D02*
X13931900Y-10047600D01*
X13891900Y-10007600D02*
X13971900Y-10007600D01*
X14185900Y-8443600D02*
X14185900Y-8523600D01*
X14145900Y-8483600D02*
X14225900Y-8483600D01*
X14185900Y-9967600D02*
X14185900Y-10047600D01*
X14145900Y-10007600D02*
X14225900Y-10007600D01*
X14439900Y-8443600D02*
X14439900Y-8523600D01*
X14399900Y-8483600D02*
X14479900Y-8483600D01*
X14439900Y-9967600D02*
X14439900Y-10047600D01*
X14399900Y-10007600D02*
X14479900Y-10007600D01*
X11303000Y-8146000D02*
X11303000Y-8226000D01*
X11263000Y-8186000D02*
X11343000Y-8186000D01*
X11303000Y-9416000D02*
X11303000Y-9496000D01*
X11263000Y-9456000D02*
X11343000Y-9456000D01*
X15113000Y-7961000D02*
X15113000Y-8041000D01*
X15073000Y-8001000D02*
X15153000Y-8001000D01*
X15113000Y-8215000D02*
X15113000Y-8295000D01*
X15073000Y-8255000D02*
X15153000Y-8255000D01*
X15113000Y-8469000D02*
X15113000Y-8549000D01*
X15073000Y-8509000D02*
X15153000Y-8509000D01*
X15113000Y-8723000D02*
X15113000Y-8803000D01*
X15073000Y-8763000D02*
X15153000Y-8763000D01*
X15113000Y-8977000D02*
X15113000Y-9057000D01*
X15073000Y-9017000D02*
X15153000Y-9017000D01*
X15113000Y-9231000D02*
X15113000Y-9311000D01*
X15073000Y-9271000D02*
X15153000Y-9271000D01*
X15113000Y-9485000D02*
X15113000Y-9565000D01*
X15073000Y-9525000D02*
X15153000Y-9525000D01*
X15113000Y-9739000D02*
X15113000Y-9819000D01*
X15073000Y-9779000D02*
X15153000Y-9779000D01*
X15875000Y-7961000D02*
X15875000Y-8041000D01*
X15835000Y-8001000D02*
X15915000Y-8001000D01*
X15875000Y-8215000D02*
X15875000Y-8295000D01*
X15835000Y-8255000D02*
X15915000Y-8255000D01*
X15875000Y-8469000D02*
X15875000Y-8549000D01*
X15835000Y-8509000D02*
X15915000Y-8509000D01*
X15875000Y-8723000D02*
X15875000Y-8803000D01*
X15835000Y-8763000D02*
X15915000Y-8763000D01*
X15875000Y-8977000D02*
X15875000Y-9057000D01*
X15835000Y-9017000D02*
X15915000Y-9017000D01*
X15875000Y-9231000D02*
X15875000Y-9311000D01*
X15835000Y-9271000D02*
X15915000Y-9271000D01*
X15875000Y-9485000D02*
X15875000Y-9565000D01*
X15835000Y-9525000D02*
X15915000Y-9525000D01*
X15875000Y-9739000D02*
X15875000Y-9819000D01*
X15835000Y-9779000D02*
X15915000Y-9779000D01*
X8535000Y-5671200D02*
X8535000Y-5751200D01*
X8495000Y-5711200D02*
X8575000Y-5711200D01*
X8535000Y-7195200D02*
X8535000Y-7275200D01*
X8495000Y-7235200D02*
X8575000Y-7235200D01*
X8789000Y-5671200D02*
X8789000Y-5751200D01*
X8749000Y-5711200D02*
X8829000Y-5711200D01*
X8789000Y-7195200D02*
X8789000Y-7275200D01*
X8749000Y-7235200D02*
X8829000Y-7235200D01*
X9043000Y-5671200D02*
X9043000Y-5751200D01*
X9003000Y-5711200D02*
X9083000Y-5711200D01*
X9043000Y-7195200D02*
X9043000Y-7275200D01*
X9003000Y-7235200D02*
X9083000Y-7235200D01*
X9297000Y-5671200D02*
X9297000Y-5751200D01*
X9257000Y-5711200D02*
X9337000Y-5711200D01*
X9297000Y-7195200D02*
X9297000Y-7275200D01*
X9257000Y-7235200D02*
X9337000Y-7235200D01*
X9551000Y-5671200D02*
X9551000Y-5751200D01*
X9511000Y-5711200D02*
X9591000Y-5711200D01*
X9551000Y-7195200D02*
X9551000Y-7275200D01*
X9511000Y-7235200D02*
X9591000Y-7235200D01*
X10033000Y-11644000D02*
X10033000Y-11724000D01*
X9993000Y-11684000D02*
X10073000Y-11684000D01*
X11303000Y-11644000D02*
X11303000Y-11724000D01*
X11263000Y-11684000D02*
X11343000Y-11684000D01*
X12052300Y-8443600D02*
X12052300Y-8523600D01*
X12012300Y-8483600D02*
X12092300Y-8483600D01*
X12052300Y-9967600D02*
X12052300Y-10047600D01*
X12012300Y-10007600D02*
X12092300Y-10007600D01*
X12306300Y-8443600D02*
X12306300Y-8523600D01*
X12266300Y-8483600D02*
X12346300Y-8483600D01*
X12306300Y-9967600D02*
X12306300Y-10047600D01*
X12266300Y-10007600D02*
X12346300Y-10007600D01*
X12560300Y-8443600D02*
X12560300Y-8523600D01*
X12520300Y-8483600D02*
X12600300Y-8483600D01*
X12560300Y-9967600D02*
X12560300Y-10047600D01*
X12520300Y-10007600D02*
X12600300Y-10007600D01*
X12814300Y-8443600D02*
X12814300Y-8523600D01*
X12774300Y-8483600D02*
X12854300Y-8483600D01*
X12814300Y-9967600D02*
X12814300Y-10047600D01*
X12774300Y-10007600D02*
X12854300Y-10007600D01*
X13068300Y-8443600D02*
X13068300Y-8523600D01*
X13028300Y-8483600D02*
X13108300Y-8483600D01*
X13068300Y-9967600D02*
X13068300Y-10047600D01*
X13028300Y-10007600D02*
X13108300Y-10007600D01*
X8509000Y-11263000D02*
X8509000Y-11343000D01*
X8469000Y-11303000D02*
X8549000Y-11303000D01*
X9779000Y-11263000D02*
X9779000Y-11343000D01*
X9739000Y-11303000D02*
X9819000Y-11303000D01*
X16129000Y-6564000D02*
X16129000Y-6644000D01*
X16089000Y-6604000D02*
X16169000Y-6604000D01*
X17399000Y-6564000D02*
X17399000Y-6644000D01*
X17359000Y-6604000D02*
X17439000Y-6604000D01*
X10033000Y-11263000D02*
X10033000Y-11343000D01*
X9993000Y-11303000D02*
X10073000Y-11303000D01*
X11303000Y-11263000D02*
X11303000Y-11343000D01*
X11263000Y-11303000D02*
X11343000Y-11303000D01*
X12055200Y-5671200D02*
X12055200Y-5751200D01*
X12015200Y-5711200D02*
X12095200Y-5711200D01*
X12055200Y-7195200D02*
X12055200Y-7275200D01*
X12015200Y-7235200D02*
X12095200Y-7235200D01*
X12309200Y-5671200D02*
X12309200Y-5751200D01*
X12269200Y-5711200D02*
X12349200Y-5711200D01*
X12309200Y-7195200D02*
X12309200Y-7275200D01*
X12269200Y-7235200D02*
X12349200Y-7235200D01*
X12563200Y-5671200D02*
X12563200Y-5751200D01*
X12523200Y-5711200D02*
X12603200Y-5711200D01*
X12563200Y-7195200D02*
X12563200Y-7275200D01*
X12523200Y-7235200D02*
X12603200Y-7235200D01*
X12817200Y-5671200D02*
X12817200Y-5751200D01*
X12777200Y-5711200D02*
X12857200Y-5711200D01*
X12817200Y-7195200D02*
X12817200Y-7275200D01*
X12777200Y-7235200D02*
X12857200Y-7235200D01*
X13071200Y-5671200D02*
X13071200Y-5751200D01*
X13031200Y-5711200D02*
X13111200Y-5711200D01*
X13071200Y-7195200D02*
X13071200Y-7275200D01*
X13031200Y-7235200D02*
X13111200Y-7235200D01*
X11467820Y-7021820D02*
X11467820Y-6958180D01*
X11404180Y-6958180D01*
X11404180Y-7021820D01*
X11467820Y-7021820D01*
X11721820Y-7021820D02*
X11721820Y-6958180D01*
X11658180Y-6958180D01*
X11658180Y-7021820D01*
X11721820Y-7021820D01*
X11447820Y-6211820D02*
X11447820Y-6148180D01*
X11384180Y-6148180D01*
X11384180Y-6211820D01*
X11447820Y-6211820D01*
X11701820Y-6211820D02*
X11701820Y-6148180D01*
X11638180Y-6148180D01*
X11638180Y-6211820D01*
X11701820Y-6211820D01*
X11400000Y-7800000D02*
X11450000Y-7750000D01*
X11400000Y-7700000D01*
X11350000Y-7750000D01*
X11400000Y-7800000D01*
X11654000Y-7800000D02*
X11704000Y-7750000D01*
X11654000Y-7700000D01*
X11604000Y-7750000D01*
X11654000Y-7800000D01*
X16002000Y-11353000D02*
X16052000Y-11303000D01*
X16002000Y-11253000D01*
X15952000Y-11303000D01*
X16002000Y-11353000D01*
X16042000Y-11403000D02*
X16042000Y-11203000D01*
X15962000Y-11403000D02*
X15962000Y-11203000D01*
X16042000Y-11203000D02*
G75*
G03X15962000Y-11203000I-40000J0D01*
G01*
X15962000Y-11403000D02*
G75*
G03X16042000Y-11403000I40000J0D01*
G01*
X16302000Y-11823000D02*
X16352000Y-11773000D01*
X16302000Y-11723000D01*
X16252000Y-11773000D01*
X16302000Y-11823000D01*
X16402000Y-11733000D02*
X16202000Y-11733000D01*
X16402000Y-11813000D02*
X16202000Y-11813000D01*
X16202000Y-11733000D02*
G75*
G03X16202000Y-11813000I0J-40000D01*
G01*
X16402000Y-11813000D02*
G75*
G03X16402000Y-11733000I0J40000D01*
G01*
X16602000Y-11353000D02*
X16652000Y-11303000D01*
X16602000Y-11253000D01*
X16552000Y-11303000D01*
X16602000Y-11353000D01*
X16642000Y-11403000D02*
X16642000Y-11203000D01*
X16562000Y-11403000D02*
X16562000Y-11203000D01*
X16642000Y-11203000D02*
G75*
G03X16562000Y-11203000I-40000J0D01*
G01*
X16562000Y-11403000D02*
G75*
G03X16642000Y-11403000I40000J0D01*
G01*
X16595000Y-8156000D02*
X16705000Y-8266000D01*
X16705000Y-8156000D02*
X16595000Y-8266000D01*
X16705000Y-8211000D02*
G75*
G03X16705000Y-8211000I-55000J0D01*
G01*
X16595000Y-8606000D02*
X16705000Y-8716000D01*
X16705000Y-8606000D02*
X16595000Y-8716000D01*
X16705000Y-8661000D02*
G75*
G03X16705000Y-8661000I-55000J0D01*
G01*
X17245000Y-8156000D02*
X17355000Y-8266000D01*
X17355000Y-8156000D02*
X17245000Y-8266000D01*
X17355000Y-8211000D02*
G75*
G03X17355000Y-8211000I-55000J0D01*
G01*
X17245000Y-8606000D02*
X17355000Y-8716000D01*
X17355000Y-8606000D02*
X17245000Y-8716000D01*
X17355000Y-8661000D02*
G75*
G03X17355000Y-8661000I-55000J0D01*
G01*
X16605000Y-9356000D02*
X16715000Y-9466000D01*
X16715000Y-9356000D02*
X16605000Y-9466000D01*
X16715000Y-9411000D02*
G75*
G03X16715000Y-9411000I-55000J0D01*
G01*
X16605000Y-9806000D02*
X16715000Y-9916000D01*
X16715000Y-9806000D02*
X16605000Y-9916000D01*
X16715000Y-9861000D02*
G75*
G03X16715000Y-9861000I-55000J0D01*
G01*
X17255000Y-9356000D02*
X17365000Y-9466000D01*
X17365000Y-9356000D02*
X17255000Y-9466000D01*
X17365000Y-9411000D02*
G75*
G03X17365000Y-9411000I-55000J0D01*
G01*
X17255000Y-9806000D02*
X17365000Y-9916000D01*
X17365000Y-9806000D02*
X17255000Y-9916000D01*
X17365000Y-9861000D02*
G75*
G03X17365000Y-9861000I-55000J0D01*
G01*
X16605000Y-6930000D02*
X16715000Y-7040000D01*
X16715000Y-6930000D02*
X16605000Y-7040000D01*
X16715000Y-6985000D02*
G75*
G03X16715000Y-6985000I-55000J0D01*
G01*
X16605000Y-7380000D02*
X16715000Y-7490000D01*
X16715000Y-7380000D02*
X16605000Y-7490000D01*
X16715000Y-7435000D02*
G75*
G03X16715000Y-7435000I-55000J0D01*
G01*
X17255000Y-6930000D02*
X17365000Y-7040000D01*
X17365000Y-6930000D02*
X17255000Y-7040000D01*
X17365000Y-6985000D02*
G75*
G03X17365000Y-6985000I-55000J0D01*
G01*
X17255000Y-7380000D02*
X17365000Y-7490000D01*
X17365000Y-7380000D02*
X17255000Y-7490000D01*
X17365000Y-7435000D02*
G75*
G03X17365000Y-7435000I-55000J0D01*
G01*
X16615000Y-5660000D02*
X16725000Y-5770000D01*
X16725000Y-5660000D02*
X16615000Y-5770000D01*
X16725000Y-5715000D02*
G75*
G03X16725000Y-5715000I-55000J0D01*
G01*
X16615000Y-6110000D02*
X16725000Y-6220000D01*
X16725000Y-6110000D02*
X16615000Y-6220000D01*
X16725000Y-6165000D02*
G75*
G03X16725000Y-6165000I-55000J0D01*
G01*
X17265000Y-5660000D02*
X17375000Y-5770000D01*
X17375000Y-5660000D02*
X17265000Y-5770000D01*
X17375000Y-5715000D02*
G75*
G03X17375000Y-5715000I-55000J0D01*
G01*
X17265000Y-6110000D02*
X17375000Y-6220000D01*
X17375000Y-6110000D02*
X17265000Y-6220000D01*
X17375000Y-6165000D02*
G75*
G03X17375000Y-6165000I-55000J0D01*
G01*
X12862000Y-10905000D02*
X13012000Y-11055000D01*
X13012000Y-10905000D02*
X12862000Y-11055000D01*
X12937000Y-10905000D02*
X12937000Y-11055000D01*
X12862000Y-10980000D02*
X13012000Y-10980000D01*
X14911000Y-10905000D02*
X15061000Y-11055000D01*
X15061000Y-10905000D02*
X14911000Y-11055000D01*
X14986000Y-10905000D02*
X14986000Y-11055000D01*
X14911000Y-10980000D02*
X15061000Y-10980000D01*
D12*
X8628928Y-12823214D02*
X8628928Y-12523214D01*
X8700357Y-12523214D01*
X8743214Y-12537500D01*
X8771786Y-12566071D01*
X8786071Y-12594643D01*
X8800357Y-12651786D01*
X8800357Y-12694643D01*
X8786071Y-12751786D01*
X8771786Y-12780357D01*
X8743214Y-12808929D01*
X8700357Y-12823214D01*
X8628928Y-12823214D01*
X8928928Y-12823214D02*
X8928928Y-12623214D01*
X8928928Y-12680357D02*
X8943214Y-12651786D01*
X8957500Y-12637500D01*
X8986071Y-12623214D01*
X9014643Y-12623214D01*
X9114643Y-12823214D02*
X9114643Y-12623214D01*
X9114643Y-12523214D02*
X9100357Y-12537500D01*
X9114643Y-12551786D01*
X9128928Y-12537500D01*
X9114643Y-12523214D01*
X9114643Y-12551786D01*
X9300357Y-12823214D02*
X9271786Y-12808929D01*
X9257500Y-12780357D01*
X9257500Y-12523214D01*
X9457500Y-12823214D02*
X9428928Y-12808929D01*
X9414643Y-12780357D01*
X9414643Y-12523214D01*
X9800357Y-12823214D02*
X9800357Y-12523214D01*
X9900357Y-12737500D01*
X10000357Y-12523214D01*
X10000357Y-12823214D01*
X10271786Y-12823214D02*
X10271786Y-12666071D01*
X10257500Y-12637500D01*
X10228928Y-12623214D01*
X10171786Y-12623214D01*
X10143214Y-12637500D01*
X10271786Y-12808929D02*
X10243214Y-12823214D01*
X10171786Y-12823214D01*
X10143214Y-12808929D01*
X10128928Y-12780357D01*
X10128928Y-12751786D01*
X10143214Y-12723214D01*
X10171786Y-12708929D01*
X10243214Y-12708929D01*
X10271786Y-12694643D01*
X10414643Y-12623214D02*
X10414643Y-12923214D01*
X10414643Y-12637500D02*
X10443214Y-12623214D01*
X10500357Y-12623214D01*
X10528928Y-12637500D01*
X10543214Y-12651786D01*
X10557500Y-12680357D01*
X10557500Y-12766071D01*
X10543214Y-12794643D01*
X10528928Y-12808929D01*
X10500357Y-12823214D01*
X10443214Y-12823214D01*
X10414643Y-12808929D01*
X10686071Y-12794643D02*
X10700357Y-12808929D01*
X10686071Y-12823214D01*
X10671786Y-12808929D01*
X10686071Y-12794643D01*
X10686071Y-12823214D01*
X10686071Y-12637500D02*
X10700357Y-12651786D01*
X10686071Y-12666071D01*
X10671786Y-12651786D01*
X10686071Y-12637500D01*
X10686071Y-12666071D01*
X8302500Y-13297500D02*
X8342500Y-13337500D01*
X8342500Y-13297500D02*
X8302500Y-13337500D01*
X8686071Y-13153214D02*
X8714643Y-13153214D01*
X8743214Y-13167500D01*
X8757500Y-13181786D01*
X8771786Y-13210357D01*
X8786071Y-13267500D01*
X8786071Y-13338929D01*
X8771786Y-13396071D01*
X8757500Y-13424643D01*
X8743214Y-13438929D01*
X8714643Y-13453214D01*
X8686071Y-13453214D01*
X8657500Y-13438929D01*
X8643214Y-13424643D01*
X8628928Y-13396071D01*
X8614643Y-13338929D01*
X8614643Y-13267500D01*
X8628928Y-13210357D01*
X8643214Y-13181786D01*
X8657500Y-13167500D01*
X8686071Y-13153214D01*
X8914643Y-13424643D02*
X8928928Y-13438929D01*
X8914643Y-13453214D01*
X8900357Y-13438929D01*
X8914643Y-13424643D01*
X8914643Y-13453214D01*
X9186071Y-13253214D02*
X9186071Y-13453214D01*
X9114643Y-13138929D02*
X9043214Y-13353214D01*
X9228928Y-13353214D01*
X9400357Y-13153214D02*
X9428928Y-13153214D01*
X9457500Y-13167500D01*
X9471786Y-13181786D01*
X9486071Y-13210357D01*
X9500357Y-13267500D01*
X9500357Y-13338929D01*
X9486071Y-13396071D01*
X9471786Y-13424643D01*
X9457500Y-13438929D01*
X9428928Y-13453214D01*
X9400357Y-13453214D01*
X9371786Y-13438929D01*
X9357500Y-13424643D01*
X9343214Y-13396071D01*
X9328928Y-13338929D01*
X9328928Y-13267500D01*
X9343214Y-13210357D01*
X9357500Y-13181786D01*
X9371786Y-13167500D01*
X9400357Y-13153214D01*
X9628928Y-13453214D02*
X9628928Y-13253214D01*
X9628928Y-13281786D02*
X9643214Y-13267500D01*
X9671786Y-13253214D01*
X9714643Y-13253214D01*
X9743214Y-13267500D01*
X9757500Y-13296071D01*
X9757500Y-13453214D01*
X9757500Y-13296071D02*
X9771786Y-13267500D01*
X9800357Y-13253214D01*
X9843214Y-13253214D01*
X9871786Y-13267500D01*
X9886071Y-13296071D01*
X9886071Y-13453214D01*
X10028928Y-13453214D02*
X10028928Y-13253214D01*
X10028928Y-13281786D02*
X10043214Y-13267500D01*
X10071786Y-13253214D01*
X10114643Y-13253214D01*
X10143214Y-13267500D01*
X10157500Y-13296071D01*
X10157500Y-13453214D01*
X10157500Y-13296071D02*
X10171786Y-13267500D01*
X10200357Y-13253214D01*
X10243214Y-13253214D01*
X10271786Y-13267500D01*
X10286071Y-13296071D01*
X10286071Y-13453214D01*
X10871786Y-13138929D02*
X10614643Y-13524643D01*
X11257500Y-13153214D02*
X11286071Y-13153214D01*
X11314643Y-13167500D01*
X11328928Y-13181786D01*
X11343214Y-13210357D01*
X11357500Y-13267500D01*
X11357500Y-13338929D01*
X11343214Y-13396071D01*
X11328928Y-13424643D01*
X11314643Y-13438929D01*
X11286071Y-13453214D01*
X11257500Y-13453214D01*
X11228928Y-13438929D01*
X11214643Y-13424643D01*
X11200357Y-13396071D01*
X11186071Y-13338929D01*
X11186071Y-13267500D01*
X11200357Y-13210357D01*
X11214643Y-13181786D01*
X11228928Y-13167500D01*
X11257500Y-13153214D01*
X11486071Y-13424643D02*
X11500357Y-13438929D01*
X11486071Y-13453214D01*
X11471786Y-13438929D01*
X11486071Y-13424643D01*
X11486071Y-13453214D01*
X11686071Y-13153214D02*
X11714643Y-13153214D01*
X11743214Y-13167500D01*
X11757500Y-13181786D01*
X11771786Y-13210357D01*
X11786071Y-13267500D01*
X11786071Y-13338929D01*
X11771786Y-13396071D01*
X11757500Y-13424643D01*
X11743214Y-13438929D01*
X11714643Y-13453214D01*
X11686071Y-13453214D01*
X11657500Y-13438929D01*
X11643214Y-13424643D01*
X11628928Y-13396071D01*
X11614643Y-13338929D01*
X11614643Y-13267500D01*
X11628928Y-13210357D01*
X11643214Y-13181786D01*
X11657500Y-13167500D01*
X11686071Y-13153214D01*
X12071786Y-13453214D02*
X11900357Y-13453214D01*
X11986071Y-13453214D02*
X11986071Y-13153214D01*
X11957500Y-13196071D01*
X11928928Y-13224643D01*
X11900357Y-13238929D01*
X12328928Y-13153214D02*
X12271786Y-13153214D01*
X12243214Y-13167500D01*
X12228928Y-13181786D01*
X12200357Y-13224643D01*
X12186071Y-13281786D01*
X12186071Y-13396071D01*
X12200357Y-13424643D01*
X12214643Y-13438929D01*
X12243214Y-13453214D01*
X12300357Y-13453214D01*
X12328928Y-13438929D01*
X12343214Y-13424643D01*
X12357500Y-13396071D01*
X12357500Y-13324643D01*
X12343214Y-13296071D01*
X12328928Y-13281786D01*
X12300357Y-13267500D01*
X12243214Y-13267500D01*
X12214643Y-13281786D01*
X12200357Y-13296071D01*
X12186071Y-13324643D01*
X12471786Y-13153214D02*
X12471786Y-13210357D01*
X12586071Y-13153214D02*
X12586071Y-13210357D01*
X13028928Y-13567500D02*
X13014643Y-13553214D01*
X12986071Y-13510357D01*
X12971786Y-13481786D01*
X12957500Y-13438929D01*
X12943214Y-13367500D01*
X12943214Y-13310357D01*
X12957500Y-13238929D01*
X12971786Y-13196071D01*
X12986071Y-13167500D01*
X13014643Y-13124643D01*
X13028928Y-13110357D01*
X13114643Y-13153214D02*
X13300357Y-13153214D01*
X13200357Y-13267500D01*
X13243214Y-13267500D01*
X13271786Y-13281786D01*
X13286071Y-13296071D01*
X13300357Y-13324643D01*
X13300357Y-13396071D01*
X13286071Y-13424643D01*
X13271786Y-13438929D01*
X13243214Y-13453214D01*
X13157500Y-13453214D01*
X13128928Y-13438929D01*
X13114643Y-13424643D01*
X13657500Y-13453214D02*
X13657500Y-13153214D01*
X13786071Y-13453214D02*
X13786071Y-13296071D01*
X13771786Y-13267500D01*
X13743214Y-13253214D01*
X13700357Y-13253214D01*
X13671786Y-13267500D01*
X13657500Y-13281786D01*
X13971786Y-13453214D02*
X13943214Y-13438929D01*
X13928928Y-13424643D01*
X13914643Y-13396071D01*
X13914643Y-13310357D01*
X13928928Y-13281786D01*
X13943214Y-13267500D01*
X13971786Y-13253214D01*
X14014643Y-13253214D01*
X14043214Y-13267500D01*
X14057500Y-13281786D01*
X14071786Y-13310357D01*
X14071786Y-13396071D01*
X14057500Y-13424643D01*
X14043214Y-13438929D01*
X14014643Y-13453214D01*
X13971786Y-13453214D01*
X14243214Y-13453214D02*
X14214643Y-13438929D01*
X14200357Y-13410357D01*
X14200357Y-13153214D01*
X14471786Y-13438929D02*
X14443214Y-13453214D01*
X14386071Y-13453214D01*
X14357500Y-13438929D01*
X14343214Y-13410357D01*
X14343214Y-13296071D01*
X14357500Y-13267500D01*
X14386071Y-13253214D01*
X14443214Y-13253214D01*
X14471786Y-13267500D01*
X14486071Y-13296071D01*
X14486071Y-13324643D01*
X14343214Y-13353214D01*
X14600357Y-13438929D02*
X14628928Y-13453214D01*
X14686071Y-13453214D01*
X14714643Y-13438929D01*
X14728928Y-13410357D01*
X14728928Y-13396071D01*
X14714643Y-13367500D01*
X14686071Y-13353214D01*
X14643214Y-13353214D01*
X14614643Y-13338929D01*
X14600357Y-13310357D01*
X14600357Y-13296071D01*
X14614643Y-13267500D01*
X14643214Y-13253214D01*
X14686071Y-13253214D01*
X14714643Y-13267500D01*
X14828928Y-13567500D02*
X14843214Y-13553214D01*
X14871786Y-13510357D01*
X14886071Y-13481786D01*
X14900357Y-13438929D01*
X14914643Y-13367500D01*
X14914643Y-13310357D01*
X14900357Y-13238929D01*
X14886071Y-13196071D01*
X14871786Y-13167500D01*
X14843214Y-13124643D01*
X14828928Y-13110357D01*
X8342500Y-13713500D02*
G75*
G03X8342500Y-13713500I-37500J0D01*
G01*
X8686071Y-13549214D02*
X8714643Y-13549214D01*
X8743214Y-13563500D01*
X8757500Y-13577786D01*
X8771786Y-13606357D01*
X8786071Y-13663500D01*
X8786071Y-13734929D01*
X8771786Y-13792071D01*
X8757500Y-13820643D01*
X8743214Y-13834929D01*
X8714643Y-13849214D01*
X8686071Y-13849214D01*
X8657500Y-13834929D01*
X8643214Y-13820643D01*
X8628928Y-13792071D01*
X8614643Y-13734929D01*
X8614643Y-13663500D01*
X8628928Y-13606357D01*
X8643214Y-13577786D01*
X8657500Y-13563500D01*
X8686071Y-13549214D01*
X8914643Y-13820643D02*
X8928928Y-13834929D01*
X8914643Y-13849214D01*
X8900357Y-13834929D01*
X8914643Y-13820643D01*
X8914643Y-13849214D01*
X9028928Y-13549214D02*
X9228928Y-13549214D01*
X9100357Y-13849214D01*
X9486071Y-13549214D02*
X9343214Y-13549214D01*
X9328928Y-13692071D01*
X9343214Y-13677786D01*
X9371786Y-13663500D01*
X9443214Y-13663500D01*
X9471786Y-13677786D01*
X9486071Y-13692071D01*
X9500357Y-13720643D01*
X9500357Y-13792071D01*
X9486071Y-13820643D01*
X9471786Y-13834929D01*
X9443214Y-13849214D01*
X9371786Y-13849214D01*
X9343214Y-13834929D01*
X9328928Y-13820643D01*
X9628928Y-13849214D02*
X9628928Y-13649214D01*
X9628928Y-13677786D02*
X9643214Y-13663500D01*
X9671786Y-13649214D01*
X9714643Y-13649214D01*
X9743214Y-13663500D01*
X9757500Y-13692071D01*
X9757500Y-13849214D01*
X9757500Y-13692071D02*
X9771786Y-13663500D01*
X9800357Y-13649214D01*
X9843214Y-13649214D01*
X9871786Y-13663500D01*
X9886071Y-13692071D01*
X9886071Y-13849214D01*
X10028928Y-13849214D02*
X10028928Y-13649214D01*
X10028928Y-13677786D02*
X10043214Y-13663500D01*
X10071786Y-13649214D01*
X10114643Y-13649214D01*
X10143214Y-13663500D01*
X10157500Y-13692071D01*
X10157500Y-13849214D01*
X10157500Y-13692071D02*
X10171786Y-13663500D01*
X10200357Y-13649214D01*
X10243214Y-13649214D01*
X10271786Y-13663500D01*
X10286071Y-13692071D01*
X10286071Y-13849214D01*
X10871786Y-13534929D02*
X10614643Y-13920643D01*
X11257500Y-13549214D02*
X11286071Y-13549214D01*
X11314643Y-13563500D01*
X11328928Y-13577786D01*
X11343214Y-13606357D01*
X11357500Y-13663500D01*
X11357500Y-13734929D01*
X11343214Y-13792071D01*
X11328928Y-13820643D01*
X11314643Y-13834929D01*
X11286071Y-13849214D01*
X11257500Y-13849214D01*
X11228928Y-13834929D01*
X11214643Y-13820643D01*
X11200357Y-13792071D01*
X11186071Y-13734929D01*
X11186071Y-13663500D01*
X11200357Y-13606357D01*
X11214643Y-13577786D01*
X11228928Y-13563500D01*
X11257500Y-13549214D01*
X11486071Y-13820643D02*
X11500357Y-13834929D01*
X11486071Y-13849214D01*
X11471786Y-13834929D01*
X11486071Y-13820643D01*
X11486071Y-13849214D01*
X11686071Y-13549214D02*
X11714643Y-13549214D01*
X11743214Y-13563500D01*
X11757500Y-13577786D01*
X11771786Y-13606357D01*
X11786071Y-13663500D01*
X11786071Y-13734929D01*
X11771786Y-13792071D01*
X11757500Y-13820643D01*
X11743214Y-13834929D01*
X11714643Y-13849214D01*
X11686071Y-13849214D01*
X11657500Y-13834929D01*
X11643214Y-13820643D01*
X11628928Y-13792071D01*
X11614643Y-13734929D01*
X11614643Y-13663500D01*
X11628928Y-13606357D01*
X11643214Y-13577786D01*
X11657500Y-13563500D01*
X11686071Y-13549214D01*
X11886071Y-13549214D02*
X12071786Y-13549214D01*
X11971786Y-13663500D01*
X12014643Y-13663500D01*
X12043214Y-13677786D01*
X12057500Y-13692071D01*
X12071786Y-13720643D01*
X12071786Y-13792071D01*
X12057500Y-13820643D01*
X12043214Y-13834929D01*
X12014643Y-13849214D01*
X11928928Y-13849214D01*
X11900357Y-13834929D01*
X11886071Y-13820643D01*
X12257500Y-13549214D02*
X12286071Y-13549214D01*
X12314643Y-13563500D01*
X12328928Y-13577786D01*
X12343214Y-13606357D01*
X12357500Y-13663500D01*
X12357500Y-13734929D01*
X12343214Y-13792071D01*
X12328928Y-13820643D01*
X12314643Y-13834929D01*
X12286071Y-13849214D01*
X12257500Y-13849214D01*
X12228928Y-13834929D01*
X12214643Y-13820643D01*
X12200357Y-13792071D01*
X12186071Y-13734929D01*
X12186071Y-13663500D01*
X12200357Y-13606357D01*
X12214643Y-13577786D01*
X12228928Y-13563500D01*
X12257500Y-13549214D01*
X12471786Y-13549214D02*
X12471786Y-13606357D01*
X12586071Y-13549214D02*
X12586071Y-13606357D01*
X13028928Y-13963500D02*
X13014643Y-13949214D01*
X12986071Y-13906357D01*
X12971786Y-13877786D01*
X12957500Y-13834929D01*
X12943214Y-13763500D01*
X12943214Y-13706357D01*
X12957500Y-13634929D01*
X12971786Y-13592071D01*
X12986071Y-13563500D01*
X13014643Y-13520643D01*
X13028928Y-13506357D01*
X13128928Y-13577786D02*
X13143214Y-13563500D01*
X13171786Y-13549214D01*
X13243214Y-13549214D01*
X13271786Y-13563500D01*
X13286071Y-13577786D01*
X13300357Y-13606357D01*
X13300357Y-13634929D01*
X13286071Y-13677786D01*
X13114643Y-13849214D01*
X13300357Y-13849214D01*
X13557500Y-13649214D02*
X13557500Y-13849214D01*
X13486071Y-13534929D02*
X13414643Y-13749214D01*
X13600357Y-13749214D01*
X13943214Y-13849214D02*
X13943214Y-13549214D01*
X14071786Y-13849214D02*
X14071786Y-13692071D01*
X14057500Y-13663500D01*
X14028928Y-13649214D01*
X13986071Y-13649214D01*
X13957500Y-13663500D01*
X13943214Y-13677786D01*
X14257500Y-13849214D02*
X14228928Y-13834929D01*
X14214643Y-13820643D01*
X14200357Y-13792071D01*
X14200357Y-13706357D01*
X14214643Y-13677786D01*
X14228928Y-13663500D01*
X14257500Y-13649214D01*
X14300357Y-13649214D01*
X14328928Y-13663500D01*
X14343214Y-13677786D01*
X14357500Y-13706357D01*
X14357500Y-13792071D01*
X14343214Y-13820643D01*
X14328928Y-13834929D01*
X14300357Y-13849214D01*
X14257500Y-13849214D01*
X14528928Y-13849214D02*
X14500357Y-13834929D01*
X14486071Y-13806357D01*
X14486071Y-13549214D01*
X14757500Y-13834929D02*
X14728928Y-13849214D01*
X14671786Y-13849214D01*
X14643214Y-13834929D01*
X14628928Y-13806357D01*
X14628928Y-13692071D01*
X14643214Y-13663500D01*
X14671786Y-13649214D01*
X14728928Y-13649214D01*
X14757500Y-13663500D01*
X14771786Y-13692071D01*
X14771786Y-13720643D01*
X14628928Y-13749214D01*
X14886071Y-13834929D02*
X14914643Y-13849214D01*
X14971786Y-13849214D01*
X15000357Y-13834929D01*
X15014643Y-13806357D01*
X15014643Y-13792071D01*
X15000357Y-13763500D01*
X14971786Y-13749214D01*
X14928928Y-13749214D01*
X14900357Y-13734929D01*
X14886071Y-13706357D01*
X14886071Y-13692071D01*
X14900357Y-13663500D01*
X14928928Y-13649214D01*
X14971786Y-13649214D01*
X15000357Y-13663500D01*
X15114643Y-13963500D02*
X15128928Y-13949214D01*
X15157500Y-13906357D01*
X15171786Y-13877786D01*
X15186071Y-13834929D01*
X15200357Y-13763500D01*
X15200357Y-13706357D01*
X15186071Y-13634929D01*
X15171786Y-13592071D01*
X15157500Y-13563500D01*
X15128928Y-13520643D01*
X15114643Y-13506357D01*
X8302500Y-14069500D02*
X8302500Y-14149500D01*
X8262500Y-14109500D02*
X8342500Y-14109500D01*
X8686071Y-13945214D02*
X8714643Y-13945214D01*
X8743214Y-13959500D01*
X8757500Y-13973786D01*
X8771786Y-14002357D01*
X8786071Y-14059500D01*
X8786071Y-14130929D01*
X8771786Y-14188071D01*
X8757500Y-14216643D01*
X8743214Y-14230929D01*
X8714643Y-14245214D01*
X8686071Y-14245214D01*
X8657500Y-14230929D01*
X8643214Y-14216643D01*
X8628928Y-14188071D01*
X8614643Y-14130929D01*
X8614643Y-14059500D01*
X8628928Y-14002357D01*
X8643214Y-13973786D01*
X8657500Y-13959500D01*
X8686071Y-13945214D01*
X8914643Y-14216643D02*
X8928928Y-14230929D01*
X8914643Y-14245214D01*
X8900357Y-14230929D01*
X8914643Y-14216643D01*
X8914643Y-14245214D01*
X9100357Y-14073786D02*
X9071786Y-14059500D01*
X9057500Y-14045214D01*
X9043214Y-14016643D01*
X9043214Y-14002357D01*
X9057500Y-13973786D01*
X9071786Y-13959500D01*
X9100357Y-13945214D01*
X9157500Y-13945214D01*
X9186071Y-13959500D01*
X9200357Y-13973786D01*
X9214643Y-14002357D01*
X9214643Y-14016643D01*
X9200357Y-14045214D01*
X9186071Y-14059500D01*
X9157500Y-14073786D01*
X9100357Y-14073786D01*
X9071786Y-14088071D01*
X9057500Y-14102357D01*
X9043214Y-14130929D01*
X9043214Y-14188071D01*
X9057500Y-14216643D01*
X9071786Y-14230929D01*
X9100357Y-14245214D01*
X9157500Y-14245214D01*
X9186071Y-14230929D01*
X9200357Y-14216643D01*
X9214643Y-14188071D01*
X9214643Y-14130929D01*
X9200357Y-14102357D01*
X9186071Y-14088071D01*
X9157500Y-14073786D01*
X9400357Y-13945214D02*
X9428928Y-13945214D01*
X9457500Y-13959500D01*
X9471786Y-13973786D01*
X9486071Y-14002357D01*
X9500357Y-14059500D01*
X9500357Y-14130929D01*
X9486071Y-14188071D01*
X9471786Y-14216643D01*
X9457500Y-14230929D01*
X9428928Y-14245214D01*
X9400357Y-14245214D01*
X9371786Y-14230929D01*
X9357500Y-14216643D01*
X9343214Y-14188071D01*
X9328928Y-14130929D01*
X9328928Y-14059500D01*
X9343214Y-14002357D01*
X9357500Y-13973786D01*
X9371786Y-13959500D01*
X9400357Y-13945214D01*
X9628928Y-14245214D02*
X9628928Y-14045214D01*
X9628928Y-14073786D02*
X9643214Y-14059500D01*
X9671786Y-14045214D01*
X9714643Y-14045214D01*
X9743214Y-14059500D01*
X9757500Y-14088071D01*
X9757500Y-14245214D01*
X9757500Y-14088071D02*
X9771786Y-14059500D01*
X9800357Y-14045214D01*
X9843214Y-14045214D01*
X9871786Y-14059500D01*
X9886071Y-14088071D01*
X9886071Y-14245214D01*
X10028928Y-14245214D02*
X10028928Y-14045214D01*
X10028928Y-14073786D02*
X10043214Y-14059500D01*
X10071786Y-14045214D01*
X10114643Y-14045214D01*
X10143214Y-14059500D01*
X10157500Y-14088071D01*
X10157500Y-14245214D01*
X10157500Y-14088071D02*
X10171786Y-14059500D01*
X10200357Y-14045214D01*
X10243214Y-14045214D01*
X10271786Y-14059500D01*
X10286071Y-14088071D01*
X10286071Y-14245214D01*
X10871786Y-13930929D02*
X10614643Y-14316643D01*
X11257500Y-13945214D02*
X11286071Y-13945214D01*
X11314643Y-13959500D01*
X11328928Y-13973786D01*
X11343214Y-14002357D01*
X11357500Y-14059500D01*
X11357500Y-14130929D01*
X11343214Y-14188071D01*
X11328928Y-14216643D01*
X11314643Y-14230929D01*
X11286071Y-14245214D01*
X11257500Y-14245214D01*
X11228928Y-14230929D01*
X11214643Y-14216643D01*
X11200357Y-14188071D01*
X11186071Y-14130929D01*
X11186071Y-14059500D01*
X11200357Y-14002357D01*
X11214643Y-13973786D01*
X11228928Y-13959500D01*
X11257500Y-13945214D01*
X11486071Y-14216643D02*
X11500357Y-14230929D01*
X11486071Y-14245214D01*
X11471786Y-14230929D01*
X11486071Y-14216643D01*
X11486071Y-14245214D01*
X11686071Y-13945214D02*
X11714643Y-13945214D01*
X11743214Y-13959500D01*
X11757500Y-13973786D01*
X11771786Y-14002357D01*
X11786071Y-14059500D01*
X11786071Y-14130929D01*
X11771786Y-14188071D01*
X11757500Y-14216643D01*
X11743214Y-14230929D01*
X11714643Y-14245214D01*
X11686071Y-14245214D01*
X11657500Y-14230929D01*
X11643214Y-14216643D01*
X11628928Y-14188071D01*
X11614643Y-14130929D01*
X11614643Y-14059500D01*
X11628928Y-14002357D01*
X11643214Y-13973786D01*
X11657500Y-13959500D01*
X11686071Y-13945214D01*
X11886071Y-13945214D02*
X12071786Y-13945214D01*
X11971786Y-14059500D01*
X12014643Y-14059500D01*
X12043214Y-14073786D01*
X12057500Y-14088071D01*
X12071786Y-14116643D01*
X12071786Y-14188071D01*
X12057500Y-14216643D01*
X12043214Y-14230929D01*
X12014643Y-14245214D01*
X11928928Y-14245214D01*
X11900357Y-14230929D01*
X11886071Y-14216643D01*
X12357500Y-14245214D02*
X12186071Y-14245214D01*
X12271786Y-14245214D02*
X12271786Y-13945214D01*
X12243214Y-13988071D01*
X12214643Y-14016643D01*
X12186071Y-14030929D01*
X12471786Y-13945214D02*
X12471786Y-14002357D01*
X12586071Y-13945214D02*
X12586071Y-14002357D01*
X13028928Y-14359500D02*
X13014643Y-14345214D01*
X12986071Y-14302357D01*
X12971786Y-14273786D01*
X12957500Y-14230929D01*
X12943214Y-14159500D01*
X12943214Y-14102357D01*
X12957500Y-14030929D01*
X12971786Y-13988071D01*
X12986071Y-13959500D01*
X13014643Y-13916643D01*
X13028928Y-13902357D01*
X13300357Y-14245214D02*
X13128928Y-14245214D01*
X13214643Y-14245214D02*
X13214643Y-13945214D01*
X13186071Y-13988071D01*
X13157500Y-14016643D01*
X13128928Y-14030929D01*
X13400357Y-13945214D02*
X13600357Y-13945214D01*
X13471786Y-14245214D01*
X13757500Y-14073786D02*
X13728928Y-14059500D01*
X13714643Y-14045214D01*
X13700357Y-14016643D01*
X13700357Y-14002357D01*
X13714643Y-13973786D01*
X13728928Y-13959500D01*
X13757500Y-13945214D01*
X13814643Y-13945214D01*
X13843214Y-13959500D01*
X13857500Y-13973786D01*
X13871786Y-14002357D01*
X13871786Y-14016643D01*
X13857500Y-14045214D01*
X13843214Y-14059500D01*
X13814643Y-14073786D01*
X13757500Y-14073786D01*
X13728928Y-14088071D01*
X13714643Y-14102357D01*
X13700357Y-14130929D01*
X13700357Y-14188071D01*
X13714643Y-14216643D01*
X13728928Y-14230929D01*
X13757500Y-14245214D01*
X13814643Y-14245214D01*
X13843214Y-14230929D01*
X13857500Y-14216643D01*
X13871786Y-14188071D01*
X13871786Y-14130929D01*
X13857500Y-14102357D01*
X13843214Y-14088071D01*
X13814643Y-14073786D01*
X14228928Y-14245214D02*
X14228928Y-13945214D01*
X14357500Y-14245214D02*
X14357500Y-14088071D01*
X14343214Y-14059500D01*
X14314643Y-14045214D01*
X14271786Y-14045214D01*
X14243214Y-14059500D01*
X14228928Y-14073786D01*
X14543214Y-14245214D02*
X14514643Y-14230929D01*
X14500357Y-14216643D01*
X14486071Y-14188071D01*
X14486071Y-14102357D01*
X14500357Y-14073786D01*
X14514643Y-14059500D01*
X14543214Y-14045214D01*
X14586071Y-14045214D01*
X14614643Y-14059500D01*
X14628928Y-14073786D01*
X14643214Y-14102357D01*
X14643214Y-14188071D01*
X14628928Y-14216643D01*
X14614643Y-14230929D01*
X14586071Y-14245214D01*
X14543214Y-14245214D01*
X14814643Y-14245214D02*
X14786071Y-14230929D01*
X14771786Y-14202357D01*
X14771786Y-13945214D01*
X15043214Y-14230929D02*
X15014643Y-14245214D01*
X14957500Y-14245214D01*
X14928928Y-14230929D01*
X14914643Y-14202357D01*
X14914643Y-14088071D01*
X14928928Y-14059500D01*
X14957500Y-14045214D01*
X15014643Y-14045214D01*
X15043214Y-14059500D01*
X15057500Y-14088071D01*
X15057500Y-14116643D01*
X14914643Y-14145214D01*
X15171786Y-14230929D02*
X15200357Y-14245214D01*
X15257500Y-14245214D01*
X15286071Y-14230929D01*
X15300357Y-14202357D01*
X15300357Y-14188071D01*
X15286071Y-14159500D01*
X15257500Y-14145214D01*
X15214643Y-14145214D01*
X15186071Y-14130929D01*
X15171786Y-14102357D01*
X15171786Y-14088071D01*
X15186071Y-14059500D01*
X15214643Y-14045214D01*
X15257500Y-14045214D01*
X15286071Y-14059500D01*
X15400357Y-14359500D02*
X15414643Y-14345214D01*
X15443214Y-14302357D01*
X15457500Y-14273786D01*
X15471786Y-14230929D01*
X15486071Y-14159500D01*
X15486071Y-14102357D01*
X15471786Y-14030929D01*
X15457500Y-13988071D01*
X15443214Y-13959500D01*
X15414643Y-13916643D01*
X15400357Y-13902357D01*
X8329320Y-14537320D02*
X8329320Y-14473680D01*
X8265680Y-14473680D01*
X8265680Y-14537320D01*
X8329320Y-14537320D01*
X8686071Y-14341214D02*
X8714643Y-14341214D01*
X8743214Y-14355500D01*
X8757500Y-14369786D01*
X8771786Y-14398357D01*
X8786071Y-14455500D01*
X8786071Y-14526929D01*
X8771786Y-14584071D01*
X8757500Y-14612643D01*
X8743214Y-14626929D01*
X8714643Y-14641214D01*
X8686071Y-14641214D01*
X8657500Y-14626929D01*
X8643214Y-14612643D01*
X8628928Y-14584071D01*
X8614643Y-14526929D01*
X8614643Y-14455500D01*
X8628928Y-14398357D01*
X8643214Y-14369786D01*
X8657500Y-14355500D01*
X8686071Y-14341214D01*
X8914643Y-14612643D02*
X8928928Y-14626929D01*
X8914643Y-14641214D01*
X8900357Y-14626929D01*
X8914643Y-14612643D01*
X8914643Y-14641214D01*
X9071786Y-14641214D02*
X9128928Y-14641214D01*
X9157500Y-14626929D01*
X9171786Y-14612643D01*
X9200357Y-14569786D01*
X9214643Y-14512643D01*
X9214643Y-14398357D01*
X9200357Y-14369786D01*
X9186071Y-14355500D01*
X9157500Y-14341214D01*
X9100357Y-14341214D01*
X9071786Y-14355500D01*
X9057500Y-14369786D01*
X9043214Y-14398357D01*
X9043214Y-14469786D01*
X9057500Y-14498357D01*
X9071786Y-14512643D01*
X9100357Y-14526929D01*
X9157500Y-14526929D01*
X9186071Y-14512643D01*
X9200357Y-14498357D01*
X9214643Y-14469786D01*
X9400357Y-14341214D02*
X9428928Y-14341214D01*
X9457500Y-14355500D01*
X9471786Y-14369786D01*
X9486071Y-14398357D01*
X9500357Y-14455500D01*
X9500357Y-14526929D01*
X9486071Y-14584071D01*
X9471786Y-14612643D01*
X9457500Y-14626929D01*
X9428928Y-14641214D01*
X9400357Y-14641214D01*
X9371786Y-14626929D01*
X9357500Y-14612643D01*
X9343214Y-14584071D01*
X9328928Y-14526929D01*
X9328928Y-14455500D01*
X9343214Y-14398357D01*
X9357500Y-14369786D01*
X9371786Y-14355500D01*
X9400357Y-14341214D01*
X9628928Y-14641214D02*
X9628928Y-14441214D01*
X9628928Y-14469786D02*
X9643214Y-14455500D01*
X9671786Y-14441214D01*
X9714643Y-14441214D01*
X9743214Y-14455500D01*
X9757500Y-14484071D01*
X9757500Y-14641214D01*
X9757500Y-14484071D02*
X9771786Y-14455500D01*
X9800357Y-14441214D01*
X9843214Y-14441214D01*
X9871786Y-14455500D01*
X9886071Y-14484071D01*
X9886071Y-14641214D01*
X10028928Y-14641214D02*
X10028928Y-14441214D01*
X10028928Y-14469786D02*
X10043214Y-14455500D01*
X10071786Y-14441214D01*
X10114643Y-14441214D01*
X10143214Y-14455500D01*
X10157500Y-14484071D01*
X10157500Y-14641214D01*
X10157500Y-14484071D02*
X10171786Y-14455500D01*
X10200357Y-14441214D01*
X10243214Y-14441214D01*
X10271786Y-14455500D01*
X10286071Y-14484071D01*
X10286071Y-14641214D01*
X10871786Y-14326929D02*
X10614643Y-14712643D01*
X11257500Y-14341214D02*
X11286071Y-14341214D01*
X11314643Y-14355500D01*
X11328928Y-14369786D01*
X11343214Y-14398357D01*
X11357500Y-14455500D01*
X11357500Y-14526929D01*
X11343214Y-14584071D01*
X11328928Y-14612643D01*
X11314643Y-14626929D01*
X11286071Y-14641214D01*
X11257500Y-14641214D01*
X11228928Y-14626929D01*
X11214643Y-14612643D01*
X11200357Y-14584071D01*
X11186071Y-14526929D01*
X11186071Y-14455500D01*
X11200357Y-14398357D01*
X11214643Y-14369786D01*
X11228928Y-14355500D01*
X11257500Y-14341214D01*
X11486071Y-14612643D02*
X11500357Y-14626929D01*
X11486071Y-14641214D01*
X11471786Y-14626929D01*
X11486071Y-14612643D01*
X11486071Y-14641214D01*
X11686071Y-14341214D02*
X11714643Y-14341214D01*
X11743214Y-14355500D01*
X11757500Y-14369786D01*
X11771786Y-14398357D01*
X11786071Y-14455500D01*
X11786071Y-14526929D01*
X11771786Y-14584071D01*
X11757500Y-14612643D01*
X11743214Y-14626929D01*
X11714643Y-14641214D01*
X11686071Y-14641214D01*
X11657500Y-14626929D01*
X11643214Y-14612643D01*
X11628928Y-14584071D01*
X11614643Y-14526929D01*
X11614643Y-14455500D01*
X11628928Y-14398357D01*
X11643214Y-14369786D01*
X11657500Y-14355500D01*
X11686071Y-14341214D01*
X11886071Y-14341214D02*
X12071786Y-14341214D01*
X11971786Y-14455500D01*
X12014643Y-14455500D01*
X12043214Y-14469786D01*
X12057500Y-14484071D01*
X12071786Y-14512643D01*
X12071786Y-14584071D01*
X12057500Y-14612643D01*
X12043214Y-14626929D01*
X12014643Y-14641214D01*
X11928928Y-14641214D01*
X11900357Y-14626929D01*
X11886071Y-14612643D01*
X12343214Y-14341214D02*
X12200357Y-14341214D01*
X12186071Y-14484071D01*
X12200357Y-14469786D01*
X12228928Y-14455500D01*
X12300357Y-14455500D01*
X12328928Y-14469786D01*
X12343214Y-14484071D01*
X12357500Y-14512643D01*
X12357500Y-14584071D01*
X12343214Y-14612643D01*
X12328928Y-14626929D01*
X12300357Y-14641214D01*
X12228928Y-14641214D01*
X12200357Y-14626929D01*
X12186071Y-14612643D01*
X12471786Y-14341214D02*
X12471786Y-14398357D01*
X12586071Y-14341214D02*
X12586071Y-14398357D01*
X13028928Y-14755500D02*
X13014643Y-14741214D01*
X12986071Y-14698357D01*
X12971786Y-14669786D01*
X12957500Y-14626929D01*
X12943214Y-14555500D01*
X12943214Y-14498357D01*
X12957500Y-14426929D01*
X12971786Y-14384071D01*
X12986071Y-14355500D01*
X13014643Y-14312643D01*
X13028928Y-14298357D01*
X13271786Y-14441214D02*
X13271786Y-14641214D01*
X13200357Y-14326929D02*
X13128928Y-14541214D01*
X13314643Y-14541214D01*
X13657500Y-14641214D02*
X13657500Y-14341214D01*
X13786071Y-14641214D02*
X13786071Y-14484071D01*
X13771786Y-14455500D01*
X13743214Y-14441214D01*
X13700357Y-14441214D01*
X13671786Y-14455500D01*
X13657500Y-14469786D01*
X13971786Y-14641214D02*
X13943214Y-14626929D01*
X13928928Y-14612643D01*
X13914643Y-14584071D01*
X13914643Y-14498357D01*
X13928928Y-14469786D01*
X13943214Y-14455500D01*
X13971786Y-14441214D01*
X14014643Y-14441214D01*
X14043214Y-14455500D01*
X14057500Y-14469786D01*
X14071786Y-14498357D01*
X14071786Y-14584071D01*
X14057500Y-14612643D01*
X14043214Y-14626929D01*
X14014643Y-14641214D01*
X13971786Y-14641214D01*
X14243214Y-14641214D02*
X14214643Y-14626929D01*
X14200357Y-14598357D01*
X14200357Y-14341214D01*
X14471786Y-14626929D02*
X14443214Y-14641214D01*
X14386071Y-14641214D01*
X14357500Y-14626929D01*
X14343214Y-14598357D01*
X14343214Y-14484071D01*
X14357500Y-14455500D01*
X14386071Y-14441214D01*
X14443214Y-14441214D01*
X14471786Y-14455500D01*
X14486071Y-14484071D01*
X14486071Y-14512643D01*
X14343214Y-14541214D01*
X14600357Y-14626929D02*
X14628928Y-14641214D01*
X14686071Y-14641214D01*
X14714643Y-14626929D01*
X14728928Y-14598357D01*
X14728928Y-14584071D01*
X14714643Y-14555500D01*
X14686071Y-14541214D01*
X14643214Y-14541214D01*
X14614643Y-14526929D01*
X14600357Y-14498357D01*
X14600357Y-14484071D01*
X14614643Y-14455500D01*
X14643214Y-14441214D01*
X14686071Y-14441214D01*
X14714643Y-14455500D01*
X14828928Y-14755500D02*
X14843214Y-14741214D01*
X14871786Y-14698357D01*
X14886071Y-14669786D01*
X14900357Y-14626929D01*
X14914643Y-14555500D01*
X14914643Y-14498357D01*
X14900357Y-14426929D01*
X14886071Y-14384071D01*
X14871786Y-14355500D01*
X14843214Y-14312643D01*
X14828928Y-14298357D01*
X8292500Y-14951500D02*
X8342500Y-14901500D01*
X8292500Y-14851500D01*
X8242500Y-14901500D01*
X8292500Y-14951500D01*
X8786071Y-15037214D02*
X8614643Y-15037214D01*
X8700357Y-15037214D02*
X8700357Y-14737214D01*
X8671786Y-14780071D01*
X8643214Y-14808643D01*
X8614643Y-14822929D01*
X8914643Y-15008643D02*
X8928928Y-15022929D01*
X8914643Y-15037214D01*
X8900357Y-15022929D01*
X8914643Y-15008643D01*
X8914643Y-15037214D01*
X9114643Y-14737214D02*
X9143214Y-14737214D01*
X9171786Y-14751500D01*
X9186071Y-14765786D01*
X9200357Y-14794357D01*
X9214643Y-14851500D01*
X9214643Y-14922929D01*
X9200357Y-14980071D01*
X9186071Y-15008643D01*
X9171786Y-15022929D01*
X9143214Y-15037214D01*
X9114643Y-15037214D01*
X9086071Y-15022929D01*
X9071786Y-15008643D01*
X9057500Y-14980071D01*
X9043214Y-14922929D01*
X9043214Y-14851500D01*
X9057500Y-14794357D01*
X9071786Y-14765786D01*
X9086071Y-14751500D01*
X9114643Y-14737214D01*
X9400357Y-14737214D02*
X9428928Y-14737214D01*
X9457500Y-14751500D01*
X9471786Y-14765786D01*
X9486071Y-14794357D01*
X9500357Y-14851500D01*
X9500357Y-14922929D01*
X9486071Y-14980071D01*
X9471786Y-15008643D01*
X9457500Y-15022929D01*
X9428928Y-15037214D01*
X9400357Y-15037214D01*
X9371786Y-15022929D01*
X9357500Y-15008643D01*
X9343214Y-14980071D01*
X9328928Y-14922929D01*
X9328928Y-14851500D01*
X9343214Y-14794357D01*
X9357500Y-14765786D01*
X9371786Y-14751500D01*
X9400357Y-14737214D01*
X9628928Y-15037214D02*
X9628928Y-14837214D01*
X9628928Y-14865786D02*
X9643214Y-14851500D01*
X9671786Y-14837214D01*
X9714643Y-14837214D01*
X9743214Y-14851500D01*
X9757500Y-14880071D01*
X9757500Y-15037214D01*
X9757500Y-14880071D02*
X9771786Y-14851500D01*
X9800357Y-14837214D01*
X9843214Y-14837214D01*
X9871786Y-14851500D01*
X9886071Y-14880071D01*
X9886071Y-15037214D01*
X10028928Y-15037214D02*
X10028928Y-14837214D01*
X10028928Y-14865786D02*
X10043214Y-14851500D01*
X10071786Y-14837214D01*
X10114643Y-14837214D01*
X10143214Y-14851500D01*
X10157500Y-14880071D01*
X10157500Y-15037214D01*
X10157500Y-14880071D02*
X10171786Y-14851500D01*
X10200357Y-14837214D01*
X10243214Y-14837214D01*
X10271786Y-14851500D01*
X10286071Y-14880071D01*
X10286071Y-15037214D01*
X10871786Y-14722929D02*
X10614643Y-15108643D01*
X11257500Y-14737214D02*
X11286071Y-14737214D01*
X11314643Y-14751500D01*
X11328928Y-14765786D01*
X11343214Y-14794357D01*
X11357500Y-14851500D01*
X11357500Y-14922929D01*
X11343214Y-14980071D01*
X11328928Y-15008643D01*
X11314643Y-15022929D01*
X11286071Y-15037214D01*
X11257500Y-15037214D01*
X11228928Y-15022929D01*
X11214643Y-15008643D01*
X11200357Y-14980071D01*
X11186071Y-14922929D01*
X11186071Y-14851500D01*
X11200357Y-14794357D01*
X11214643Y-14765786D01*
X11228928Y-14751500D01*
X11257500Y-14737214D01*
X11486071Y-15008643D02*
X11500357Y-15022929D01*
X11486071Y-15037214D01*
X11471786Y-15022929D01*
X11486071Y-15008643D01*
X11486071Y-15037214D01*
X11686071Y-14737214D02*
X11714643Y-14737214D01*
X11743214Y-14751500D01*
X11757500Y-14765786D01*
X11771786Y-14794357D01*
X11786071Y-14851500D01*
X11786071Y-14922929D01*
X11771786Y-14980071D01*
X11757500Y-15008643D01*
X11743214Y-15022929D01*
X11714643Y-15037214D01*
X11686071Y-15037214D01*
X11657500Y-15022929D01*
X11643214Y-15008643D01*
X11628928Y-14980071D01*
X11614643Y-14922929D01*
X11614643Y-14851500D01*
X11628928Y-14794357D01*
X11643214Y-14765786D01*
X11657500Y-14751500D01*
X11686071Y-14737214D01*
X11886071Y-14737214D02*
X12071786Y-14737214D01*
X11971786Y-14851500D01*
X12014643Y-14851500D01*
X12043214Y-14865786D01*
X12057500Y-14880071D01*
X12071786Y-14908643D01*
X12071786Y-14980071D01*
X12057500Y-15008643D01*
X12043214Y-15022929D01*
X12014643Y-15037214D01*
X11928928Y-15037214D01*
X11900357Y-15022929D01*
X11886071Y-15008643D01*
X12214643Y-15037214D02*
X12271786Y-15037214D01*
X12300357Y-15022929D01*
X12314643Y-15008643D01*
X12343214Y-14965786D01*
X12357500Y-14908643D01*
X12357500Y-14794357D01*
X12343214Y-14765786D01*
X12328928Y-14751500D01*
X12300357Y-14737214D01*
X12243214Y-14737214D01*
X12214643Y-14751500D01*
X12200357Y-14765786D01*
X12186071Y-14794357D01*
X12186071Y-14865786D01*
X12200357Y-14894357D01*
X12214643Y-14908643D01*
X12243214Y-14922929D01*
X12300357Y-14922929D01*
X12328928Y-14908643D01*
X12343214Y-14894357D01*
X12357500Y-14865786D01*
X12471786Y-14737214D02*
X12471786Y-14794357D01*
X12586071Y-14737214D02*
X12586071Y-14794357D01*
X13028928Y-15151500D02*
X13014643Y-15137214D01*
X12986071Y-15094357D01*
X12971786Y-15065786D01*
X12957500Y-15022929D01*
X12943214Y-14951500D01*
X12943214Y-14894357D01*
X12957500Y-14822929D01*
X12971786Y-14780071D01*
X12986071Y-14751500D01*
X13014643Y-14708643D01*
X13028928Y-14694357D01*
X13128928Y-14765786D02*
X13143214Y-14751500D01*
X13171786Y-14737214D01*
X13243214Y-14737214D01*
X13271786Y-14751500D01*
X13286071Y-14765786D01*
X13300357Y-14794357D01*
X13300357Y-14822929D01*
X13286071Y-14865786D01*
X13114643Y-15037214D01*
X13300357Y-15037214D01*
X13657500Y-15037214D02*
X13657500Y-14737214D01*
X13786071Y-15037214D02*
X13786071Y-14880071D01*
X13771786Y-14851500D01*
X13743214Y-14837214D01*
X13700357Y-14837214D01*
X13671786Y-14851500D01*
X13657500Y-14865786D01*
X13971786Y-15037214D02*
X13943214Y-15022929D01*
X13928928Y-15008643D01*
X13914643Y-14980071D01*
X13914643Y-14894357D01*
X13928928Y-14865786D01*
X13943214Y-14851500D01*
X13971786Y-14837214D01*
X14014643Y-14837214D01*
X14043214Y-14851500D01*
X14057500Y-14865786D01*
X14071786Y-14894357D01*
X14071786Y-14980071D01*
X14057500Y-15008643D01*
X14043214Y-15022929D01*
X14014643Y-15037214D01*
X13971786Y-15037214D01*
X14243214Y-15037214D02*
X14214643Y-15022929D01*
X14200357Y-14994357D01*
X14200357Y-14737214D01*
X14471786Y-15022929D02*
X14443214Y-15037214D01*
X14386071Y-15037214D01*
X14357500Y-15022929D01*
X14343214Y-14994357D01*
X14343214Y-14880071D01*
X14357500Y-14851500D01*
X14386071Y-14837214D01*
X14443214Y-14837214D01*
X14471786Y-14851500D01*
X14486071Y-14880071D01*
X14486071Y-14908643D01*
X14343214Y-14937214D01*
X14600357Y-15022929D02*
X14628928Y-15037214D01*
X14686071Y-15037214D01*
X14714643Y-15022929D01*
X14728928Y-14994357D01*
X14728928Y-14980071D01*
X14714643Y-14951500D01*
X14686071Y-14937214D01*
X14643214Y-14937214D01*
X14614643Y-14922929D01*
X14600357Y-14894357D01*
X14600357Y-14880071D01*
X14614643Y-14851500D01*
X14643214Y-14837214D01*
X14686071Y-14837214D01*
X14714643Y-14851500D01*
X15086071Y-14922929D02*
X15314643Y-14922929D01*
X15200357Y-15037214D02*
X15200357Y-14808643D01*
X15657500Y-14737214D02*
X15843214Y-14737214D01*
X15743214Y-14851500D01*
X15786071Y-14851500D01*
X15814643Y-14865786D01*
X15828928Y-14880071D01*
X15843214Y-14908643D01*
X15843214Y-14980071D01*
X15828928Y-15008643D01*
X15814643Y-15022929D01*
X15786071Y-15037214D01*
X15700357Y-15037214D01*
X15671786Y-15022929D01*
X15657500Y-15008643D01*
X16186071Y-15022929D02*
X16214643Y-15037214D01*
X16271786Y-15037214D01*
X16300357Y-15022929D01*
X16314643Y-14994357D01*
X16314643Y-14980071D01*
X16300357Y-14951500D01*
X16271786Y-14937214D01*
X16228928Y-14937214D01*
X16200357Y-14922929D01*
X16186071Y-14894357D01*
X16186071Y-14880071D01*
X16200357Y-14851500D01*
X16228928Y-14837214D01*
X16271786Y-14837214D01*
X16300357Y-14851500D01*
X16486071Y-15037214D02*
X16457500Y-15022929D01*
X16443214Y-14994357D01*
X16443214Y-14737214D01*
X16643214Y-15037214D02*
X16614643Y-15022929D01*
X16600357Y-15008643D01*
X16586071Y-14980071D01*
X16586071Y-14894357D01*
X16600357Y-14865786D01*
X16614643Y-14851500D01*
X16643214Y-14837214D01*
X16686071Y-14837214D01*
X16714643Y-14851500D01*
X16728928Y-14865786D01*
X16743214Y-14894357D01*
X16743214Y-14980071D01*
X16728928Y-15008643D01*
X16714643Y-15022929D01*
X16686071Y-15037214D01*
X16643214Y-15037214D01*
X16828928Y-14837214D02*
X16943214Y-14837214D01*
X16871786Y-14737214D02*
X16871786Y-14994357D01*
X16886071Y-15022929D01*
X16914643Y-15037214D01*
X16943214Y-15037214D01*
X17028928Y-15022929D02*
X17057500Y-15037214D01*
X17114643Y-15037214D01*
X17143214Y-15022929D01*
X17157500Y-14994357D01*
X17157500Y-14980071D01*
X17143214Y-14951500D01*
X17114643Y-14937214D01*
X17071786Y-14937214D01*
X17043214Y-14922929D01*
X17028928Y-14894357D01*
X17028928Y-14880071D01*
X17043214Y-14851500D01*
X17071786Y-14837214D01*
X17114643Y-14837214D01*
X17143214Y-14851500D01*
X17257500Y-15151500D02*
X17271786Y-15137214D01*
X17300357Y-15094357D01*
X17314643Y-15065786D01*
X17328928Y-15022929D01*
X17343214Y-14951500D01*
X17343214Y-14894357D01*
X17328928Y-14822929D01*
X17314643Y-14780071D01*
X17300357Y-14751500D01*
X17271786Y-14708643D01*
X17257500Y-14694357D01*
X8232500Y-15242500D02*
X8342500Y-15352500D01*
X8342500Y-15242500D02*
X8232500Y-15352500D01*
X8342500Y-15297500D02*
G75*
G03X8342500Y-15297500I-55000J0D01*
G01*
X8786071Y-15433214D02*
X8614643Y-15433214D01*
X8700357Y-15433214D02*
X8700357Y-15133214D01*
X8671786Y-15176071D01*
X8643214Y-15204643D01*
X8614643Y-15218929D01*
X8914643Y-15404643D02*
X8928928Y-15418929D01*
X8914643Y-15433214D01*
X8900357Y-15418929D01*
X8914643Y-15404643D01*
X8914643Y-15433214D01*
X9214643Y-15433214D02*
X9043214Y-15433214D01*
X9128928Y-15433214D02*
X9128928Y-15133214D01*
X9100357Y-15176071D01*
X9071786Y-15204643D01*
X9043214Y-15218929D01*
X9400357Y-15133214D02*
X9428928Y-15133214D01*
X9457500Y-15147500D01*
X9471786Y-15161786D01*
X9486071Y-15190357D01*
X9500357Y-15247500D01*
X9500357Y-15318929D01*
X9486071Y-15376071D01*
X9471786Y-15404643D01*
X9457500Y-15418929D01*
X9428928Y-15433214D01*
X9400357Y-15433214D01*
X9371786Y-15418929D01*
X9357500Y-15404643D01*
X9343214Y-15376071D01*
X9328928Y-15318929D01*
X9328928Y-15247500D01*
X9343214Y-15190357D01*
X9357500Y-15161786D01*
X9371786Y-15147500D01*
X9400357Y-15133214D01*
X9628928Y-15433214D02*
X9628928Y-15233214D01*
X9628928Y-15261786D02*
X9643214Y-15247500D01*
X9671786Y-15233214D01*
X9714643Y-15233214D01*
X9743214Y-15247500D01*
X9757500Y-15276071D01*
X9757500Y-15433214D01*
X9757500Y-15276071D02*
X9771786Y-15247500D01*
X9800357Y-15233214D01*
X9843214Y-15233214D01*
X9871786Y-15247500D01*
X9886071Y-15276071D01*
X9886071Y-15433214D01*
X10028928Y-15433214D02*
X10028928Y-15233214D01*
X10028928Y-15261786D02*
X10043214Y-15247500D01*
X10071786Y-15233214D01*
X10114643Y-15233214D01*
X10143214Y-15247500D01*
X10157500Y-15276071D01*
X10157500Y-15433214D01*
X10157500Y-15276071D02*
X10171786Y-15247500D01*
X10200357Y-15233214D01*
X10243214Y-15233214D01*
X10271786Y-15247500D01*
X10286071Y-15276071D01*
X10286071Y-15433214D01*
X10871786Y-15118929D02*
X10614643Y-15504643D01*
X11257500Y-15133214D02*
X11286071Y-15133214D01*
X11314643Y-15147500D01*
X11328928Y-15161786D01*
X11343214Y-15190357D01*
X11357500Y-15247500D01*
X11357500Y-15318929D01*
X11343214Y-15376071D01*
X11328928Y-15404643D01*
X11314643Y-15418929D01*
X11286071Y-15433214D01*
X11257500Y-15433214D01*
X11228928Y-15418929D01*
X11214643Y-15404643D01*
X11200357Y-15376071D01*
X11186071Y-15318929D01*
X11186071Y-15247500D01*
X11200357Y-15190357D01*
X11214643Y-15161786D01*
X11228928Y-15147500D01*
X11257500Y-15133214D01*
X11486071Y-15404643D02*
X11500357Y-15418929D01*
X11486071Y-15433214D01*
X11471786Y-15418929D01*
X11486071Y-15404643D01*
X11486071Y-15433214D01*
X11686071Y-15133214D02*
X11714643Y-15133214D01*
X11743214Y-15147500D01*
X11757500Y-15161786D01*
X11771786Y-15190357D01*
X11786071Y-15247500D01*
X11786071Y-15318929D01*
X11771786Y-15376071D01*
X11757500Y-15404643D01*
X11743214Y-15418929D01*
X11714643Y-15433214D01*
X11686071Y-15433214D01*
X11657500Y-15418929D01*
X11643214Y-15404643D01*
X11628928Y-15376071D01*
X11614643Y-15318929D01*
X11614643Y-15247500D01*
X11628928Y-15190357D01*
X11643214Y-15161786D01*
X11657500Y-15147500D01*
X11686071Y-15133214D01*
X12043214Y-15233214D02*
X12043214Y-15433214D01*
X11971786Y-15118929D02*
X11900357Y-15333214D01*
X12086071Y-15333214D01*
X12171786Y-15133214D02*
X12357500Y-15133214D01*
X12257500Y-15247500D01*
X12300357Y-15247500D01*
X12328928Y-15261786D01*
X12343214Y-15276071D01*
X12357500Y-15304643D01*
X12357500Y-15376071D01*
X12343214Y-15404643D01*
X12328928Y-15418929D01*
X12300357Y-15433214D01*
X12214643Y-15433214D01*
X12186071Y-15418929D01*
X12171786Y-15404643D01*
X12471786Y-15133214D02*
X12471786Y-15190357D01*
X12586071Y-15133214D02*
X12586071Y-15190357D01*
X13028928Y-15547500D02*
X13014643Y-15533214D01*
X12986071Y-15490357D01*
X12971786Y-15461786D01*
X12957500Y-15418929D01*
X12943214Y-15347500D01*
X12943214Y-15290357D01*
X12957500Y-15218929D01*
X12971786Y-15176071D01*
X12986071Y-15147500D01*
X13014643Y-15104643D01*
X13028928Y-15090357D01*
X13300357Y-15433214D02*
X13128928Y-15433214D01*
X13214643Y-15433214D02*
X13214643Y-15133214D01*
X13186071Y-15176071D01*
X13157500Y-15204643D01*
X13128928Y-15218929D01*
X13557500Y-15133214D02*
X13500357Y-15133214D01*
X13471786Y-15147500D01*
X13457500Y-15161786D01*
X13428928Y-15204643D01*
X13414643Y-15261786D01*
X13414643Y-15376071D01*
X13428928Y-15404643D01*
X13443214Y-15418929D01*
X13471786Y-15433214D01*
X13528928Y-15433214D01*
X13557500Y-15418929D01*
X13571786Y-15404643D01*
X13586071Y-15376071D01*
X13586071Y-15304643D01*
X13571786Y-15276071D01*
X13557500Y-15261786D01*
X13528928Y-15247500D01*
X13471786Y-15247500D01*
X13443214Y-15261786D01*
X13428928Y-15276071D01*
X13414643Y-15304643D01*
X13943214Y-15433214D02*
X13943214Y-15133214D01*
X14071786Y-15433214D02*
X14071786Y-15276071D01*
X14057500Y-15247500D01*
X14028928Y-15233214D01*
X13986071Y-15233214D01*
X13957500Y-15247500D01*
X13943214Y-15261786D01*
X14257500Y-15433214D02*
X14228928Y-15418929D01*
X14214643Y-15404643D01*
X14200357Y-15376071D01*
X14200357Y-15290357D01*
X14214643Y-15261786D01*
X14228928Y-15247500D01*
X14257500Y-15233214D01*
X14300357Y-15233214D01*
X14328928Y-15247500D01*
X14343214Y-15261786D01*
X14357500Y-15290357D01*
X14357500Y-15376071D01*
X14343214Y-15404643D01*
X14328928Y-15418929D01*
X14300357Y-15433214D01*
X14257500Y-15433214D01*
X14528928Y-15433214D02*
X14500357Y-15418929D01*
X14486071Y-15390357D01*
X14486071Y-15133214D01*
X14757500Y-15418929D02*
X14728928Y-15433214D01*
X14671786Y-15433214D01*
X14643214Y-15418929D01*
X14628928Y-15390357D01*
X14628928Y-15276071D01*
X14643214Y-15247500D01*
X14671786Y-15233214D01*
X14728928Y-15233214D01*
X14757500Y-15247500D01*
X14771786Y-15276071D01*
X14771786Y-15304643D01*
X14628928Y-15333214D01*
X14886071Y-15418929D02*
X14914643Y-15433214D01*
X14971786Y-15433214D01*
X15000357Y-15418929D01*
X15014643Y-15390357D01*
X15014643Y-15376071D01*
X15000357Y-15347500D01*
X14971786Y-15333214D01*
X14928928Y-15333214D01*
X14900357Y-15318929D01*
X14886071Y-15290357D01*
X14886071Y-15276071D01*
X14900357Y-15247500D01*
X14928928Y-15233214D01*
X14971786Y-15233214D01*
X15000357Y-15247500D01*
X15114643Y-15547500D02*
X15128928Y-15533214D01*
X15157500Y-15490357D01*
X15171786Y-15461786D01*
X15186071Y-15418929D01*
X15200357Y-15347500D01*
X15200357Y-15290357D01*
X15186071Y-15218929D01*
X15171786Y-15176071D01*
X15157500Y-15147500D01*
X15128928Y-15104643D01*
X15114643Y-15090357D01*
X8192500Y-15618500D02*
X8342500Y-15768500D01*
X8342500Y-15618500D02*
X8192500Y-15768500D01*
X8267500Y-15618500D02*
X8267500Y-15768500D01*
X8192500Y-15693500D02*
X8342500Y-15693500D01*
X8786071Y-15829214D02*
X8614643Y-15829214D01*
X8700357Y-15829214D02*
X8700357Y-15529214D01*
X8671786Y-15572071D01*
X8643214Y-15600643D01*
X8614643Y-15614929D01*
X8914643Y-15800643D02*
X8928928Y-15814929D01*
X8914643Y-15829214D01*
X8900357Y-15814929D01*
X8914643Y-15800643D01*
X8914643Y-15829214D01*
X9200357Y-15529214D02*
X9057500Y-15529214D01*
X9043214Y-15672071D01*
X9057500Y-15657786D01*
X9086071Y-15643500D01*
X9157500Y-15643500D01*
X9186071Y-15657786D01*
X9200357Y-15672071D01*
X9214643Y-15700643D01*
X9214643Y-15772071D01*
X9200357Y-15800643D01*
X9186071Y-15814929D01*
X9157500Y-15829214D01*
X9086071Y-15829214D01*
X9057500Y-15814929D01*
X9043214Y-15800643D01*
X9400357Y-15529214D02*
X9428928Y-15529214D01*
X9457500Y-15543500D01*
X9471786Y-15557786D01*
X9486071Y-15586357D01*
X9500357Y-15643500D01*
X9500357Y-15714929D01*
X9486071Y-15772071D01*
X9471786Y-15800643D01*
X9457500Y-15814929D01*
X9428928Y-15829214D01*
X9400357Y-15829214D01*
X9371786Y-15814929D01*
X9357500Y-15800643D01*
X9343214Y-15772071D01*
X9328928Y-15714929D01*
X9328928Y-15643500D01*
X9343214Y-15586357D01*
X9357500Y-15557786D01*
X9371786Y-15543500D01*
X9400357Y-15529214D01*
X9628928Y-15829214D02*
X9628928Y-15629214D01*
X9628928Y-15657786D02*
X9643214Y-15643500D01*
X9671786Y-15629214D01*
X9714643Y-15629214D01*
X9743214Y-15643500D01*
X9757500Y-15672071D01*
X9757500Y-15829214D01*
X9757500Y-15672071D02*
X9771786Y-15643500D01*
X9800357Y-15629214D01*
X9843214Y-15629214D01*
X9871786Y-15643500D01*
X9886071Y-15672071D01*
X9886071Y-15829214D01*
X10028928Y-15829214D02*
X10028928Y-15629214D01*
X10028928Y-15657786D02*
X10043214Y-15643500D01*
X10071786Y-15629214D01*
X10114643Y-15629214D01*
X10143214Y-15643500D01*
X10157500Y-15672071D01*
X10157500Y-15829214D01*
X10157500Y-15672071D02*
X10171786Y-15643500D01*
X10200357Y-15629214D01*
X10243214Y-15629214D01*
X10271786Y-15643500D01*
X10286071Y-15672071D01*
X10286071Y-15829214D01*
X10871786Y-15514929D02*
X10614643Y-15900643D01*
X11257500Y-15529214D02*
X11286071Y-15529214D01*
X11314643Y-15543500D01*
X11328928Y-15557786D01*
X11343214Y-15586357D01*
X11357500Y-15643500D01*
X11357500Y-15714929D01*
X11343214Y-15772071D01*
X11328928Y-15800643D01*
X11314643Y-15814929D01*
X11286071Y-15829214D01*
X11257500Y-15829214D01*
X11228928Y-15814929D01*
X11214643Y-15800643D01*
X11200357Y-15772071D01*
X11186071Y-15714929D01*
X11186071Y-15643500D01*
X11200357Y-15586357D01*
X11214643Y-15557786D01*
X11228928Y-15543500D01*
X11257500Y-15529214D01*
X11486071Y-15800643D02*
X11500357Y-15814929D01*
X11486071Y-15829214D01*
X11471786Y-15814929D01*
X11486071Y-15800643D01*
X11486071Y-15829214D01*
X11686071Y-15529214D02*
X11714643Y-15529214D01*
X11743214Y-15543500D01*
X11757500Y-15557786D01*
X11771786Y-15586357D01*
X11786071Y-15643500D01*
X11786071Y-15714929D01*
X11771786Y-15772071D01*
X11757500Y-15800643D01*
X11743214Y-15814929D01*
X11714643Y-15829214D01*
X11686071Y-15829214D01*
X11657500Y-15814929D01*
X11643214Y-15800643D01*
X11628928Y-15772071D01*
X11614643Y-15714929D01*
X11614643Y-15643500D01*
X11628928Y-15586357D01*
X11643214Y-15557786D01*
X11657500Y-15543500D01*
X11686071Y-15529214D01*
X12057500Y-15529214D02*
X11914643Y-15529214D01*
X11900357Y-15672071D01*
X11914643Y-15657786D01*
X11943214Y-15643500D01*
X12014643Y-15643500D01*
X12043214Y-15657786D01*
X12057500Y-15672071D01*
X12071786Y-15700643D01*
X12071786Y-15772071D01*
X12057500Y-15800643D01*
X12043214Y-15814929D01*
X12014643Y-15829214D01*
X11943214Y-15829214D01*
X11914643Y-15814929D01*
X11900357Y-15800643D01*
X12214643Y-15829214D02*
X12271786Y-15829214D01*
X12300357Y-15814929D01*
X12314643Y-15800643D01*
X12343214Y-15757786D01*
X12357500Y-15700643D01*
X12357500Y-15586357D01*
X12343214Y-15557786D01*
X12328928Y-15543500D01*
X12300357Y-15529214D01*
X12243214Y-15529214D01*
X12214643Y-15543500D01*
X12200357Y-15557786D01*
X12186071Y-15586357D01*
X12186071Y-15657786D01*
X12200357Y-15686357D01*
X12214643Y-15700643D01*
X12243214Y-15714929D01*
X12300357Y-15714929D01*
X12328928Y-15700643D01*
X12343214Y-15686357D01*
X12357500Y-15657786D01*
X12471786Y-15529214D02*
X12471786Y-15586357D01*
X12586071Y-15529214D02*
X12586071Y-15586357D01*
X13028928Y-15943500D02*
X13014643Y-15929214D01*
X12986071Y-15886357D01*
X12971786Y-15857786D01*
X12957500Y-15814929D01*
X12943214Y-15743500D01*
X12943214Y-15686357D01*
X12957500Y-15614929D01*
X12971786Y-15572071D01*
X12986071Y-15543500D01*
X13014643Y-15500643D01*
X13028928Y-15486357D01*
X13128928Y-15557786D02*
X13143214Y-15543500D01*
X13171786Y-15529214D01*
X13243214Y-15529214D01*
X13271786Y-15543500D01*
X13286071Y-15557786D01*
X13300357Y-15586357D01*
X13300357Y-15614929D01*
X13286071Y-15657786D01*
X13114643Y-15829214D01*
X13300357Y-15829214D01*
X13657500Y-15829214D02*
X13657500Y-15529214D01*
X13786071Y-15829214D02*
X13786071Y-15672071D01*
X13771786Y-15643500D01*
X13743214Y-15629214D01*
X13700357Y-15629214D01*
X13671786Y-15643500D01*
X13657500Y-15657786D01*
X13971786Y-15829214D02*
X13943214Y-15814929D01*
X13928928Y-15800643D01*
X13914643Y-15772071D01*
X13914643Y-15686357D01*
X13928928Y-15657786D01*
X13943214Y-15643500D01*
X13971786Y-15629214D01*
X14014643Y-15629214D01*
X14043214Y-15643500D01*
X14057500Y-15657786D01*
X14071786Y-15686357D01*
X14071786Y-15772071D01*
X14057500Y-15800643D01*
X14043214Y-15814929D01*
X14014643Y-15829214D01*
X13971786Y-15829214D01*
X14243214Y-15829214D02*
X14214643Y-15814929D01*
X14200357Y-15786357D01*
X14200357Y-15529214D01*
X14471786Y-15814929D02*
X14443214Y-15829214D01*
X14386071Y-15829214D01*
X14357500Y-15814929D01*
X14343214Y-15786357D01*
X14343214Y-15672071D01*
X14357500Y-15643500D01*
X14386071Y-15629214D01*
X14443214Y-15629214D01*
X14471786Y-15643500D01*
X14486071Y-15672071D01*
X14486071Y-15700643D01*
X14343214Y-15729214D01*
X14600357Y-15814929D02*
X14628928Y-15829214D01*
X14686071Y-15829214D01*
X14714643Y-15814929D01*
X14728928Y-15786357D01*
X14728928Y-15772071D01*
X14714643Y-15743500D01*
X14686071Y-15729214D01*
X14643214Y-15729214D01*
X14614643Y-15714929D01*
X14600357Y-15686357D01*
X14600357Y-15672071D01*
X14614643Y-15643500D01*
X14643214Y-15629214D01*
X14686071Y-15629214D01*
X14714643Y-15643500D01*
X14828928Y-15943500D02*
X14843214Y-15929214D01*
X14871786Y-15886357D01*
X14886071Y-15857786D01*
X14900357Y-15814929D01*
X14914643Y-15743500D01*
X14914643Y-15686357D01*
X14900357Y-15614929D01*
X14886071Y-15572071D01*
X14871786Y-15543500D01*
X14843214Y-15500643D01*
X14828928Y-15486357D01*
M02*
