M48
; DRILL file {KiCad (5.1.5)-3} date 2020/06/08 21:11:37
; FORMAT={-:-/ absolute / inch / decimal}
; #@! TF.CreationDate,2020-06-08T21:11:37+09:00
; #@! TF.GenerationSoftware,Kicad,Pcbnew,(5.1.5)-3
; #@! TF.FileFunction,Plated,1,2,PTH
FMAT,2
INCH
T1C0.0157
T2C0.0295
T3C0.0315
T4C0.0354
T5C0.0394
T6C0.0433
T7C0.0591
%
G90
G05
T1
X3.6257Y-3.2631
X5.0021Y-4.1049
X5.0666Y-4.0862
T2
X4.15Y-3.1
X4.2004Y-3.05
X4.25Y-3.1
X3.4Y-3.1
X3.4504Y-3.05
X3.5Y-3.1
X3.9Y-3.1
X3.9504Y-3.05
X4.0Y-3.1
X5.05Y-3.1
X5.1004Y-3.05
X5.15Y-3.1
X5.55Y-3.1
X5.6004Y-3.05
X5.65Y-3.1
X4.8Y-3.1
X4.8504Y-3.05
X4.9Y-3.1
X3.65Y-3.1
X3.7004Y-3.05
X3.75Y-3.1
X5.3Y-3.1
X5.3504Y-3.05
X5.4Y-3.1
T3
X4.6Y-3.2228
X4.6Y-3.7228
X6.35Y-3.0827
X6.85Y-3.0827
X3.35Y-4.15
X3.85Y-4.15
X5.2861Y-2.2485
X5.2861Y-2.8485
X5.3861Y-2.2485
X5.3861Y-2.8485
X5.4861Y-2.2485
X5.4861Y-2.8485
X5.5861Y-2.2485
X5.5861Y-2.8485
X5.6861Y-2.2485
X5.6861Y-2.8485
X3.9002Y-2.2485
X3.9002Y-2.8485
X4.0002Y-2.2485
X4.0002Y-2.8485
X4.1002Y-2.2485
X4.1002Y-2.8485
X4.2002Y-2.2485
X4.2002Y-2.8485
X4.3002Y-2.2485
X4.3002Y-2.8485
X3.8949Y-3.3391
X3.8949Y-3.9391
X3.9949Y-3.3391
X3.9949Y-3.9391
X4.0949Y-3.3391
X4.0949Y-3.9391
X4.1949Y-3.3391
X4.1949Y-3.9391
X4.2949Y-3.3391
X4.2949Y-3.9391
X5.25Y-4.2
X5.25Y-4.8
X5.35Y-4.2
X5.35Y-4.8
X5.45Y-4.2
X5.45Y-4.8
X5.55Y-4.2
X5.55Y-4.8
X5.65Y-4.2
X5.65Y-4.8
X5.75Y-4.2
X5.75Y-4.8
X5.85Y-4.2
X5.85Y-4.8
X5.95Y-4.2
X5.95Y-4.8
X6.05Y-4.2
X6.05Y-4.8
X6.15Y-4.2
X6.15Y-4.8
X6.25Y-4.2
X6.25Y-4.8
X6.35Y-4.2
X6.35Y-4.8
X6.45Y-4.2
X6.45Y-4.8
X6.55Y-4.2
X6.55Y-4.8
X6.65Y-4.2
X6.65Y-4.8
X6.3504Y-4.0354
X6.8504Y-4.0354
X6.35Y-3.5551
X6.85Y-3.5551
X3.95Y-4.15
X4.45Y-4.15
X3.35Y-4.3
X3.85Y-4.3
X3.3549Y-3.3391
X3.3549Y-3.9391
X3.4549Y-3.3391
X3.4549Y-3.9391
X3.5549Y-3.3391
X3.5549Y-3.9391
X3.6549Y-3.3391
X3.6549Y-3.9391
X3.7549Y-3.3391
X3.7549Y-3.9391
X5.95Y-2.25
X5.95Y-2.35
X5.95Y-2.45
X5.95Y-2.55
X5.95Y-2.65
X5.95Y-2.75
X5.95Y-2.85
X5.95Y-2.95
X6.25Y-2.25
X6.25Y-2.35
X6.25Y-2.45
X6.25Y-2.55
X6.25Y-2.65
X6.25Y-2.75
X6.25Y-2.85
X6.25Y-2.95
X4.6Y-4.35
X4.6Y-4.75
X4.7Y-4.35
X4.7Y-4.75
X4.8Y-4.35
X4.8Y-4.75
X4.9Y-4.35
X4.9Y-4.75
X3.35Y-4.6
X3.85Y-4.6
X3.95Y-4.3
X4.45Y-4.3
X5.285Y-3.34
X5.285Y-3.94
X5.385Y-3.34
X5.385Y-3.94
X5.485Y-3.34
X5.485Y-3.94
X5.585Y-3.34
X5.585Y-3.94
X5.685Y-3.34
X5.685Y-3.94
X4.45Y-3.2228
X4.45Y-3.7228
X5.95Y-3.15
X5.95Y-3.25
X5.95Y-3.35
X5.95Y-3.45
X5.95Y-3.55
X5.95Y-3.65
X5.95Y-3.75
X5.95Y-3.85
X6.25Y-3.15
X6.25Y-3.25
X6.25Y-3.35
X6.25Y-3.45
X6.25Y-3.55
X6.25Y-3.65
X6.25Y-3.75
X6.25Y-3.85
X3.3602Y-2.2485
X3.3602Y-2.8485
X3.4602Y-2.2485
X3.4602Y-2.8485
X3.5602Y-2.2485
X3.5602Y-2.8485
X3.6602Y-2.2485
X3.6602Y-2.8485
X3.7602Y-2.2485
X3.7602Y-2.8485
X3.95Y-4.6
X4.45Y-4.6
X4.745Y-3.34
X4.745Y-3.94
X4.845Y-3.34
X4.845Y-3.94
X4.945Y-3.34
X4.945Y-3.94
X5.045Y-3.34
X5.045Y-3.94
X5.145Y-3.34
X5.145Y-3.94
X3.35Y-4.45
X3.85Y-4.45
X6.35Y-2.6
X6.85Y-2.6
X3.95Y-4.45
X4.45Y-4.45
X4.7461Y-2.2485
X4.7461Y-2.8485
X4.8461Y-2.2485
X4.8461Y-2.8485
X4.9461Y-2.2485
X4.9461Y-2.8485
X5.0461Y-2.2485
X5.0461Y-2.8485
X5.1461Y-2.2485
X5.1461Y-2.8485
T4
X4.5024Y-2.752
X4.6024Y-2.752
X4.4945Y-2.4331
X4.5945Y-2.4331
T5
X4.4882Y-3.0512
X4.5882Y-3.0512
T6
X6.5551Y-3.2327
X6.5551Y-3.4098
X6.811Y-3.2327
X6.811Y-3.4098
X6.5591Y-3.7051
X6.5591Y-3.8823
X6.815Y-3.7051
X6.815Y-3.8823
X6.5591Y-2.75
X6.5591Y-2.9272
X6.815Y-2.75
X6.815Y-2.9272
X6.563Y-2.25
X6.563Y-2.4272
X6.8189Y-2.25
X6.8189Y-2.4272
T7
X5.0933Y-4.3228
X5.9Y-4.3228
T5
G00X6.3Y-4.4894
M15
G01X6.3Y-4.4106
M16
G05
G00X6.4575Y-4.635
M15
G01X6.3787Y-4.635
M16
G05
G00X6.5362Y-4.4894
M15
G01X6.5362Y-4.4106
M16
G05
T0
M30
