G04 #@! TF.GenerationSoftware,KiCad,Pcbnew,(5.1.5)-3*
G04 #@! TF.CreationDate,2020-06-08T21:10:59+09:00*
G04 #@! TF.ProjectId,AlarmClock,416c6172-6d43-46c6-9f63-6b2e6b696361,rev?*
G04 #@! TF.SameCoordinates,Original*
G04 #@! TF.FileFunction,Legend,Top*
G04 #@! TF.FilePolarity,Positive*
%FSLAX46Y46*%
G04 Gerber Fmt 4.6, Leading zero omitted, Abs format (unit mm)*
G04 Created by KiCad (PCBNEW (5.1.5)-3) date 2020-06-08 21:10:59*
%MOMM*%
%LPD*%
G04 APERTURE LIST*
%ADD10C,0.120000*%
%ADD11C,0.200000*%
%ADD12C,0.300000*%
%ADD13C,0.150000*%
G04 APERTURE END LIST*
D10*
X105746351Y-121592857D02*
X105785041Y-121550000D01*
X105857065Y-121507142D01*
X106023732Y-121507142D01*
X106085041Y-121550000D01*
X106113017Y-121592857D01*
X106135636Y-121678571D01*
X106124922Y-121764285D01*
X106075517Y-121892857D01*
X105611232Y-122407142D01*
X106044565Y-122407142D01*
X106590398Y-121507142D02*
X106657065Y-121507142D01*
X106718375Y-121550000D01*
X106746351Y-121592857D01*
X106768970Y-121678571D01*
X106780875Y-121850000D01*
X106754089Y-122064285D01*
X106699327Y-122235714D01*
X106655279Y-122321428D01*
X106616589Y-122364285D01*
X106544565Y-122407142D01*
X106477898Y-122407142D01*
X106416589Y-122364285D01*
X106388613Y-122321428D01*
X106365994Y-122235714D01*
X106354089Y-122064285D01*
X106380875Y-121850000D01*
X106435636Y-121678571D01*
X106479684Y-121592857D01*
X106518375Y-121550000D01*
X106590398Y-121507142D01*
X107079684Y-121592857D02*
X107118375Y-121550000D01*
X107190398Y-121507142D01*
X107357065Y-121507142D01*
X107418375Y-121550000D01*
X107446351Y-121592857D01*
X107468970Y-121678571D01*
X107458255Y-121764285D01*
X107408851Y-121892857D01*
X106944565Y-122407142D01*
X107377898Y-122407142D01*
X107923732Y-121507142D02*
X107990398Y-121507142D01*
X108051708Y-121550000D01*
X108079684Y-121592857D01*
X108102303Y-121678571D01*
X108114208Y-121850000D01*
X108087422Y-122064285D01*
X108032660Y-122235714D01*
X107988613Y-122321428D01*
X107949922Y-122364285D01*
X107877898Y-122407142D01*
X107811232Y-122407142D01*
X107749922Y-122364285D01*
X107721946Y-122321428D01*
X107699327Y-122235714D01*
X107687422Y-122064285D01*
X107714208Y-121850000D01*
X107768970Y-121678571D01*
X107813017Y-121592857D01*
X107851708Y-121550000D01*
X107923732Y-121507142D01*
X108962422Y-121464285D02*
X108217779Y-122621428D01*
X109323732Y-121507142D02*
X109390398Y-121507142D01*
X109451708Y-121550000D01*
X109479684Y-121592857D01*
X109502303Y-121678571D01*
X109514208Y-121850000D01*
X109487422Y-122064285D01*
X109432660Y-122235714D01*
X109388613Y-122321428D01*
X109349922Y-122364285D01*
X109277898Y-122407142D01*
X109211232Y-122407142D01*
X109149922Y-122364285D01*
X109121946Y-122321428D01*
X109099327Y-122235714D01*
X109087422Y-122064285D01*
X109114208Y-121850000D01*
X109168970Y-121678571D01*
X109213017Y-121592857D01*
X109251708Y-121550000D01*
X109323732Y-121507142D01*
X110157065Y-121507142D02*
X110023732Y-121507142D01*
X109951708Y-121550000D01*
X109913017Y-121592857D01*
X109830279Y-121721428D01*
X109775517Y-121892857D01*
X109732660Y-122235714D01*
X109755279Y-122321428D01*
X109783255Y-122364285D01*
X109844565Y-122407142D01*
X109977898Y-122407142D01*
X110049922Y-122364285D01*
X110088613Y-122321428D01*
X110132660Y-122235714D01*
X110159446Y-122021428D01*
X110136827Y-121935714D01*
X110108851Y-121892857D01*
X110047541Y-121850000D01*
X109914208Y-121850000D01*
X109842184Y-121892857D01*
X109803494Y-121935714D01*
X109759446Y-122021428D01*
X111029089Y-121464285D02*
X110284446Y-122621428D01*
X111390398Y-121507142D02*
X111457065Y-121507142D01*
X111518375Y-121550000D01*
X111546351Y-121592857D01*
X111568970Y-121678571D01*
X111580875Y-121850000D01*
X111554089Y-122064285D01*
X111499327Y-122235714D01*
X111455279Y-122321428D01*
X111416589Y-122364285D01*
X111344565Y-122407142D01*
X111277898Y-122407142D01*
X111216589Y-122364285D01*
X111188613Y-122321428D01*
X111165994Y-122235714D01*
X111154089Y-122064285D01*
X111180875Y-121850000D01*
X111235636Y-121678571D01*
X111279684Y-121592857D01*
X111318375Y-121550000D01*
X111390398Y-121507142D01*
X111975517Y-121892857D02*
X111914208Y-121850000D01*
X111886232Y-121807142D01*
X111863613Y-121721428D01*
X111868970Y-121678571D01*
X111913017Y-121592857D01*
X111951708Y-121550000D01*
X112023732Y-121507142D01*
X112157065Y-121507142D01*
X112218375Y-121550000D01*
X112246351Y-121592857D01*
X112268970Y-121678571D01*
X112263613Y-121721428D01*
X112219565Y-121807142D01*
X112180875Y-121850000D01*
X112108851Y-121892857D01*
X111975517Y-121892857D01*
X111903494Y-121935714D01*
X111864803Y-121978571D01*
X111820755Y-122064285D01*
X111799327Y-122235714D01*
X111821946Y-122321428D01*
X111849922Y-122364285D01*
X111911232Y-122407142D01*
X112044565Y-122407142D01*
X112116589Y-122364285D01*
X112155279Y-122321428D01*
X112199327Y-122235714D01*
X112220755Y-122064285D01*
X112198136Y-121978571D01*
X112170160Y-121935714D01*
X112108851Y-121892857D01*
D11*
X147171428Y-101578571D02*
X147171428Y-100078571D01*
X147171428Y-101507142D02*
X147028571Y-101578571D01*
X146742857Y-101578571D01*
X146600000Y-101507142D01*
X146528571Y-101435714D01*
X146457142Y-101292857D01*
X146457142Y-100864285D01*
X146528571Y-100721428D01*
X146600000Y-100650000D01*
X146742857Y-100578571D01*
X147028571Y-100578571D01*
X147171428Y-100650000D01*
X148528571Y-101578571D02*
X148528571Y-100792857D01*
X148457142Y-100650000D01*
X148314285Y-100578571D01*
X148028571Y-100578571D01*
X147885714Y-100650000D01*
X148528571Y-101507142D02*
X148385714Y-101578571D01*
X148028571Y-101578571D01*
X147885714Y-101507142D01*
X147814285Y-101364285D01*
X147814285Y-101221428D01*
X147885714Y-101078571D01*
X148028571Y-101007142D01*
X148385714Y-101007142D01*
X148528571Y-100935714D01*
X149100000Y-100578571D02*
X149457142Y-101578571D01*
X149814285Y-100578571D02*
X149457142Y-101578571D01*
X149314285Y-101935714D01*
X149242857Y-102007142D01*
X149100000Y-102078571D01*
X111092857Y-101578571D02*
X111092857Y-100578571D01*
X111092857Y-100721428D02*
X111164285Y-100650000D01*
X111307142Y-100578571D01*
X111521428Y-100578571D01*
X111664285Y-100650000D01*
X111735714Y-100792857D01*
X111735714Y-101578571D01*
X111735714Y-100792857D02*
X111807142Y-100650000D01*
X111950000Y-100578571D01*
X112164285Y-100578571D01*
X112307142Y-100650000D01*
X112378571Y-100792857D01*
X112378571Y-101578571D01*
X113307142Y-101578571D02*
X113164285Y-101507142D01*
X113092857Y-101435714D01*
X113021428Y-101292857D01*
X113021428Y-100864285D01*
X113092857Y-100721428D01*
X113164285Y-100650000D01*
X113307142Y-100578571D01*
X113521428Y-100578571D01*
X113664285Y-100650000D01*
X113735714Y-100721428D01*
X113807142Y-100864285D01*
X113807142Y-101292857D01*
X113735714Y-101435714D01*
X113664285Y-101507142D01*
X113521428Y-101578571D01*
X113307142Y-101578571D01*
X114450000Y-100578571D02*
X114450000Y-101578571D01*
X114450000Y-100721428D02*
X114521428Y-100650000D01*
X114664285Y-100578571D01*
X114878571Y-100578571D01*
X115021428Y-100650000D01*
X115092857Y-100792857D01*
X115092857Y-101578571D01*
X115592857Y-100578571D02*
X116164285Y-100578571D01*
X115807142Y-100078571D02*
X115807142Y-101364285D01*
X115878571Y-101507142D01*
X116021428Y-101578571D01*
X116164285Y-101578571D01*
X116664285Y-101578571D02*
X116664285Y-100078571D01*
X117307142Y-101578571D02*
X117307142Y-100792857D01*
X117235714Y-100650000D01*
X117092857Y-100578571D01*
X116878571Y-100578571D01*
X116735714Y-100650000D01*
X116664285Y-100721428D01*
D12*
X89516696Y-120104761D02*
X90850029Y-120104761D01*
X89742886Y-122104761D01*
X91278601Y-122009523D02*
X91457172Y-122104761D01*
X91838125Y-122104761D01*
X92040505Y-122009523D01*
X92159553Y-121819047D01*
X92171458Y-121723809D01*
X92100029Y-121533333D01*
X91921458Y-121438095D01*
X91635744Y-121438095D01*
X91457172Y-121342857D01*
X91385744Y-121152380D01*
X91397648Y-121057142D01*
X91516696Y-120866666D01*
X91719077Y-120771428D01*
X92004791Y-120771428D01*
X92183363Y-120866666D01*
X93754791Y-122009523D02*
X93552410Y-122104761D01*
X93171458Y-122104761D01*
X92992886Y-122009523D01*
X92921458Y-121819047D01*
X93016696Y-121057142D01*
X93135744Y-120866666D01*
X93338125Y-120771428D01*
X93719077Y-120771428D01*
X93897648Y-120866666D01*
X93969077Y-121057142D01*
X93945267Y-121247619D01*
X92969077Y-121438095D01*
X95719077Y-120771428D02*
X95516696Y-122390476D01*
X95397648Y-122580952D01*
X95290505Y-122676190D01*
X95088125Y-122771428D01*
X94802410Y-122771428D01*
X94623839Y-122676190D01*
X95564315Y-122009523D02*
X95361934Y-122104761D01*
X94980982Y-122104761D01*
X94802410Y-122009523D01*
X94719077Y-121914285D01*
X94647648Y-121723809D01*
X94719077Y-121152380D01*
X94838125Y-120961904D01*
X94945267Y-120866666D01*
X95147648Y-120771428D01*
X95528601Y-120771428D01*
X95707172Y-120866666D01*
X97671458Y-121914285D02*
X97564315Y-122009523D01*
X97266696Y-122104761D01*
X97076220Y-122104761D01*
X96802410Y-122009523D01*
X96635744Y-121819047D01*
X96564315Y-121628571D01*
X96516696Y-121247619D01*
X96552410Y-120961904D01*
X96695267Y-120580952D01*
X96814315Y-120390476D01*
X97028601Y-120200000D01*
X97326220Y-120104761D01*
X97516696Y-120104761D01*
X97790505Y-120200000D01*
X97873839Y-120295238D01*
X98790505Y-122104761D02*
X98611934Y-122009523D01*
X98540505Y-121819047D01*
X98754791Y-120104761D01*
X99838125Y-122104761D02*
X99659553Y-122009523D01*
X99576220Y-121914285D01*
X99504791Y-121723809D01*
X99576220Y-121152380D01*
X99695267Y-120961904D01*
X99802410Y-120866666D01*
X100004791Y-120771428D01*
X100290505Y-120771428D01*
X100469077Y-120866666D01*
X100552410Y-120961904D01*
X100623839Y-121152380D01*
X100552410Y-121723809D01*
X100433363Y-121914285D01*
X100326220Y-122009523D01*
X100123839Y-122104761D01*
X99838125Y-122104761D01*
X102230982Y-122009523D02*
X102028601Y-122104761D01*
X101647648Y-122104761D01*
X101469077Y-122009523D01*
X101385744Y-121914285D01*
X101314315Y-121723809D01*
X101385744Y-121152380D01*
X101504791Y-120961904D01*
X101611934Y-120866666D01*
X101814315Y-120771428D01*
X102195267Y-120771428D01*
X102373839Y-120866666D01*
X103076220Y-122104761D02*
X103326220Y-120104761D01*
X103361934Y-121342857D02*
X103838125Y-122104761D01*
X104004791Y-120771428D02*
X103147648Y-121533333D01*
D13*
X106504761Y-119952380D02*
X106171428Y-119476190D01*
X105933333Y-119952380D02*
X105933333Y-118952380D01*
X106314285Y-118952380D01*
X106409523Y-119000000D01*
X106457142Y-119047619D01*
X106504761Y-119142857D01*
X106504761Y-119285714D01*
X106457142Y-119380952D01*
X106409523Y-119428571D01*
X106314285Y-119476190D01*
X105933333Y-119476190D01*
X107457142Y-119952380D02*
X106885714Y-119952380D01*
X107171428Y-119952380D02*
X107171428Y-118952380D01*
X107076190Y-119095238D01*
X106980952Y-119190476D01*
X106885714Y-119238095D01*
X107885714Y-119571428D02*
X108647619Y-119571428D01*
X109266666Y-119380952D02*
X109171428Y-119333333D01*
X109123809Y-119285714D01*
X109076190Y-119190476D01*
X109076190Y-119142857D01*
X109123809Y-119047619D01*
X109171428Y-119000000D01*
X109266666Y-118952380D01*
X109457142Y-118952380D01*
X109552380Y-119000000D01*
X109600000Y-119047619D01*
X109647619Y-119142857D01*
X109647619Y-119190476D01*
X109600000Y-119285714D01*
X109552380Y-119333333D01*
X109457142Y-119380952D01*
X109266666Y-119380952D01*
X109171428Y-119428571D01*
X109123809Y-119476190D01*
X109076190Y-119571428D01*
X109076190Y-119761904D01*
X109123809Y-119857142D01*
X109171428Y-119904761D01*
X109266666Y-119952380D01*
X109457142Y-119952380D01*
X109552380Y-119904761D01*
X109600000Y-119857142D01*
X109647619Y-119761904D01*
X109647619Y-119571428D01*
X109600000Y-119476190D01*
X109552380Y-119428571D01*
X109457142Y-119380952D01*
X111361904Y-119952380D02*
X110790476Y-119952380D01*
X111076190Y-119952380D02*
X111076190Y-118952380D01*
X110980952Y-119095238D01*
X110885714Y-119190476D01*
X110790476Y-119238095D01*
X111790476Y-119952380D02*
X111790476Y-118952380D01*
X111885714Y-119571428D02*
X112171428Y-119952380D01*
X112171428Y-119285714D02*
X111790476Y-119666666D01*
X112552380Y-119952380D02*
X112790476Y-119952380D01*
X112790476Y-119761904D01*
X112695238Y-119714285D01*
X112600000Y-119619047D01*
X112552380Y-119476190D01*
X112552380Y-119238095D01*
X112600000Y-119095238D01*
X112695238Y-119000000D01*
X112838095Y-118952380D01*
X113028571Y-118952380D01*
X113171428Y-119000000D01*
X113266666Y-119095238D01*
X113314285Y-119238095D01*
X113314285Y-119476190D01*
X113266666Y-119619047D01*
X113171428Y-119714285D01*
X113076190Y-119761904D01*
X113076190Y-119952380D01*
X113314285Y-119952380D01*
D10*
X134620000Y-120650000D02*
X132080000Y-120650000D01*
X132080000Y-120650000D02*
X132080000Y-123320000D01*
X134620000Y-123320000D02*
X172850000Y-123320000D01*
X129410000Y-123320000D02*
X132080000Y-123320000D01*
X132080000Y-107950000D02*
X132080000Y-105280000D01*
X132080000Y-107950000D02*
X170180000Y-107950000D01*
X170180000Y-107950000D02*
X170180000Y-105280000D01*
X134620000Y-120650000D02*
X134620000Y-123320000D01*
X134620000Y-120650000D02*
X170180000Y-120650000D01*
X170180000Y-120650000D02*
X170180000Y-123320000D01*
X172850000Y-123320000D02*
X172850000Y-105280000D01*
X172850000Y-105280000D02*
X129410000Y-105280000D01*
X129410000Y-105280000D02*
X129410000Y-123320000D01*
D13*
X87430000Y-59732000D02*
X86430000Y-64732000D01*
X86430000Y-64732000D02*
X85430000Y-69732000D01*
X85430000Y-69732000D02*
X92430000Y-69732000D01*
X92430000Y-69732000D02*
X93430000Y-64732000D01*
X94430000Y-59732000D02*
X93430000Y-64732000D01*
X93430000Y-64732000D02*
X86430000Y-64732000D01*
X87430000Y-59732000D02*
X94430000Y-59732000D01*
X96730000Y-74332000D02*
X84130000Y-74332000D01*
X84130000Y-59032000D02*
X84130000Y-70432000D01*
X96730000Y-59032000D02*
X96730000Y-70432000D01*
X84130000Y-55132000D02*
X96730000Y-55132000D01*
X94877214Y-69732000D02*
G75*
G03X94877214Y-69732000I-447214J0D01*
G01*
X101146000Y-59732000D02*
X100146000Y-64732000D01*
X100146000Y-64732000D02*
X99146000Y-69732000D01*
X99146000Y-69732000D02*
X106146000Y-69732000D01*
X106146000Y-69732000D02*
X107146000Y-64732000D01*
X108146000Y-59732000D02*
X107146000Y-64732000D01*
X107146000Y-64732000D02*
X100146000Y-64732000D01*
X101146000Y-59732000D02*
X108146000Y-59732000D01*
X110446000Y-74332000D02*
X97846000Y-74332000D01*
X97846000Y-59032000D02*
X97846000Y-70432000D01*
X110446000Y-59032000D02*
X110446000Y-70432000D01*
X97846000Y-55132000D02*
X110446000Y-55132000D01*
X108593214Y-69732000D02*
G75*
G03X108593214Y-69732000I-447214J0D01*
G01*
X130079214Y-69732000D02*
G75*
G03X130079214Y-69732000I-447214J0D01*
G01*
X119332000Y-55132000D02*
X131932000Y-55132000D01*
X131932000Y-59032000D02*
X131932000Y-70432000D01*
X119332000Y-59032000D02*
X119332000Y-70432000D01*
X131932000Y-74332000D02*
X119332000Y-74332000D01*
X122632000Y-59732000D02*
X129632000Y-59732000D01*
X128632000Y-64732000D02*
X121632000Y-64732000D01*
X129632000Y-59732000D02*
X128632000Y-64732000D01*
X127632000Y-69732000D02*
X128632000Y-64732000D01*
X120632000Y-69732000D02*
X127632000Y-69732000D01*
X121632000Y-64732000D02*
X120632000Y-69732000D01*
X122632000Y-59732000D02*
X121632000Y-64732000D01*
X143795214Y-69732000D02*
G75*
G03X143795214Y-69732000I-447214J0D01*
G01*
X133048000Y-55132000D02*
X145648000Y-55132000D01*
X145648000Y-59032000D02*
X145648000Y-70432000D01*
X133048000Y-59032000D02*
X133048000Y-70432000D01*
X145648000Y-74332000D02*
X133048000Y-74332000D01*
X136348000Y-59732000D02*
X143348000Y-59732000D01*
X142348000Y-64732000D02*
X135348000Y-64732000D01*
X143348000Y-59732000D02*
X142348000Y-64732000D01*
X141348000Y-69732000D02*
X142348000Y-64732000D01*
X134348000Y-69732000D02*
X141348000Y-69732000D01*
X135348000Y-64732000D02*
X134348000Y-69732000D01*
X136348000Y-59732000D02*
X135348000Y-64732000D01*
X87294000Y-87432000D02*
X86294000Y-92432000D01*
X86294000Y-92432000D02*
X85294000Y-97432000D01*
X85294000Y-97432000D02*
X92294000Y-97432000D01*
X92294000Y-97432000D02*
X93294000Y-92432000D01*
X94294000Y-87432000D02*
X93294000Y-92432000D01*
X93294000Y-92432000D02*
X86294000Y-92432000D01*
X87294000Y-87432000D02*
X94294000Y-87432000D01*
X96594000Y-102032000D02*
X83994000Y-102032000D01*
X83994000Y-86732000D02*
X83994000Y-98132000D01*
X96594000Y-86732000D02*
X96594000Y-98132000D01*
X83994000Y-82832000D02*
X96594000Y-82832000D01*
X94741214Y-97432000D02*
G75*
G03X94741214Y-97432000I-447214J0D01*
G01*
X101010000Y-87432000D02*
X100010000Y-92432000D01*
X100010000Y-92432000D02*
X99010000Y-97432000D01*
X99010000Y-97432000D02*
X106010000Y-97432000D01*
X106010000Y-97432000D02*
X107010000Y-92432000D01*
X108010000Y-87432000D02*
X107010000Y-92432000D01*
X107010000Y-92432000D02*
X100010000Y-92432000D01*
X101010000Y-87432000D02*
X108010000Y-87432000D01*
X110310000Y-102032000D02*
X97710000Y-102032000D01*
X97710000Y-86732000D02*
X97710000Y-98132000D01*
X110310000Y-86732000D02*
X110310000Y-98132000D01*
X97710000Y-82832000D02*
X110310000Y-82832000D01*
X108457214Y-97432000D02*
G75*
G03X108457214Y-97432000I-447214J0D01*
G01*
X130050214Y-97456000D02*
G75*
G03X130050214Y-97456000I-447214J0D01*
G01*
X119303000Y-82856000D02*
X131903000Y-82856000D01*
X131903000Y-86756000D02*
X131903000Y-98156000D01*
X119303000Y-86756000D02*
X119303000Y-98156000D01*
X131903000Y-102056000D02*
X119303000Y-102056000D01*
X122603000Y-87456000D02*
X129603000Y-87456000D01*
X128603000Y-92456000D02*
X121603000Y-92456000D01*
X129603000Y-87456000D02*
X128603000Y-92456000D01*
X127603000Y-97456000D02*
X128603000Y-92456000D01*
X120603000Y-97456000D02*
X127603000Y-97456000D01*
X121603000Y-92456000D02*
X120603000Y-97456000D01*
X122603000Y-87456000D02*
X121603000Y-92456000D01*
X143766214Y-97456000D02*
G75*
G03X143766214Y-97456000I-447214J0D01*
G01*
X133019000Y-82856000D02*
X145619000Y-82856000D01*
X145619000Y-86756000D02*
X145619000Y-98156000D01*
X133019000Y-86756000D02*
X133019000Y-98156000D01*
X145619000Y-102056000D02*
X133019000Y-102056000D01*
X136319000Y-87456000D02*
X143319000Y-87456000D01*
X142319000Y-92456000D02*
X135319000Y-92456000D01*
X143319000Y-87456000D02*
X142319000Y-92456000D01*
X141319000Y-97456000D02*
X142319000Y-92456000D01*
X134319000Y-97456000D02*
X141319000Y-97456000D01*
X135319000Y-92456000D02*
X134319000Y-97456000D01*
X136319000Y-87456000D02*
X135319000Y-92456000D01*
D10*
X118420000Y-61800462D02*
G75*
G03X112870000Y-60255170I-2990000J462D01*
G01*
X118420000Y-61799538D02*
G75*
G02X112870000Y-63344830I-2990000J-462D01*
G01*
X117930000Y-61800000D02*
G75*
G03X117930000Y-61800000I-2500000J0D01*
G01*
X112870000Y-60255000D02*
X112870000Y-63345000D01*
X113070000Y-68355000D02*
X113070000Y-71445000D01*
X118130000Y-69900000D02*
G75*
G03X118130000Y-69900000I-2500000J0D01*
G01*
X118620000Y-69899538D02*
G75*
G02X113070000Y-71444830I-2990000J-462D01*
G01*
X118620000Y-69900462D02*
G75*
G03X113070000Y-68355170I-2990000J462D01*
G01*
X85710000Y-80440000D02*
X89560000Y-80440000D01*
X89598611Y-80430122D02*
G75*
G03X85710000Y-80440000I-1948611J1690122D01*
G01*
X95948611Y-80430122D02*
G75*
G03X92060000Y-80440000I-1948611J1690122D01*
G01*
X92060000Y-80440000D02*
X95910000Y-80440000D01*
X125158611Y-80430122D02*
G75*
G03X121270000Y-80440000I-1948611J1690122D01*
G01*
X121270000Y-80440000D02*
X125120000Y-80440000D01*
X131508611Y-80430122D02*
G75*
G03X127620000Y-80440000I-1948611J1690122D01*
G01*
X127620000Y-80440000D02*
X131470000Y-80440000D01*
X102298611Y-80430122D02*
G75*
G03X98410000Y-80440000I-1948611J1690122D01*
G01*
X98410000Y-80440000D02*
X102260000Y-80440000D01*
X104760000Y-80440000D02*
X108610000Y-80440000D01*
X108648611Y-80430122D02*
G75*
G03X104760000Y-80440000I-1948611J1690122D01*
G01*
X133970000Y-80440000D02*
X137820000Y-80440000D01*
X137858611Y-80430122D02*
G75*
G03X133970000Y-80440000I-1948611J1690122D01*
G01*
X140320000Y-80440000D02*
X144170000Y-80440000D01*
X144208611Y-80430122D02*
G75*
G03X140320000Y-80440000I-1948611J1690122D01*
G01*
X173450000Y-60150000D02*
X173450000Y-58650000D01*
X172200000Y-56150000D02*
X167700000Y-56150000D01*
X166450000Y-58650000D02*
X166450000Y-60150000D01*
X167700000Y-62650000D02*
X172200000Y-62650000D01*
X167600000Y-75350000D02*
X172100000Y-75350000D01*
X166350000Y-71350000D02*
X166350000Y-72850000D01*
X172100000Y-68850000D02*
X167600000Y-68850000D01*
X173350000Y-72850000D02*
X173350000Y-71350000D01*
X173250000Y-85110000D02*
X173250000Y-83610000D01*
X172000000Y-81110000D02*
X167500000Y-81110000D01*
X166250000Y-83610000D02*
X166250000Y-85110000D01*
X167500000Y-87610000D02*
X172000000Y-87610000D01*
X167600000Y-99610000D02*
X172100000Y-99610000D01*
X166350000Y-95610000D02*
X166350000Y-97110000D01*
X172100000Y-93110000D02*
X167600000Y-93110000D01*
X173350000Y-97110000D02*
X173350000Y-95610000D01*
X157190000Y-78680000D02*
X155940000Y-78680000D01*
X157190000Y-99120000D02*
X157190000Y-78680000D01*
X152690000Y-99120000D02*
X157190000Y-99120000D01*
X152690000Y-78680000D02*
X152690000Y-99120000D01*
X153940000Y-78680000D02*
X152690000Y-78680000D01*
X155940000Y-78680000D02*
G75*
G02X153940000Y-78680000I-1000000J0D01*
G01*
X155940000Y-55820000D02*
G75*
G02X153940000Y-55820000I-1000000J0D01*
G01*
X153940000Y-55820000D02*
X152690000Y-55820000D01*
X152690000Y-55820000D02*
X152690000Y-76260000D01*
X152690000Y-76260000D02*
X157190000Y-76260000D01*
X157190000Y-76260000D02*
X157190000Y-55820000D01*
X157190000Y-55820000D02*
X155940000Y-55820000D01*
X125790000Y-116570000D02*
G75*
G02X125790000Y-114570000I0J1000000D01*
G01*
X125790000Y-114570000D02*
X125790000Y-112335000D01*
X125790000Y-112335000D02*
X115510000Y-112335000D01*
X115510000Y-112335000D02*
X115510000Y-118805000D01*
X115510000Y-118805000D02*
X125790000Y-118805000D01*
X125790000Y-118805000D02*
X125790000Y-116570000D01*
X96750000Y-105410000D02*
X96060000Y-105410000D01*
X86130000Y-105410000D02*
X86820000Y-105410000D01*
X96060000Y-103690000D02*
X86820000Y-103690000D01*
X96060000Y-107130000D02*
X96060000Y-103690000D01*
X86820000Y-107130000D02*
X96060000Y-107130000D01*
X86820000Y-103690000D02*
X86820000Y-107130000D01*
X86820000Y-107500000D02*
X86820000Y-110940000D01*
X86820000Y-110940000D02*
X96060000Y-110940000D01*
X96060000Y-110940000D02*
X96060000Y-107500000D01*
X96060000Y-107500000D02*
X86820000Y-107500000D01*
X86130000Y-109220000D02*
X86820000Y-109220000D01*
X96750000Y-109220000D02*
X96060000Y-109220000D01*
X96750000Y-113030000D02*
X96060000Y-113030000D01*
X86130000Y-113030000D02*
X86820000Y-113030000D01*
X96060000Y-111310000D02*
X86820000Y-111310000D01*
X96060000Y-114750000D02*
X96060000Y-111310000D01*
X86820000Y-114750000D02*
X96060000Y-114750000D01*
X86820000Y-111310000D02*
X86820000Y-114750000D01*
X86820000Y-115120000D02*
X86820000Y-118560000D01*
X86820000Y-118560000D02*
X96060000Y-118560000D01*
X96060000Y-118560000D02*
X96060000Y-115120000D01*
X96060000Y-115120000D02*
X86820000Y-115120000D01*
X86130000Y-116840000D02*
X86820000Y-116840000D01*
X96750000Y-116840000D02*
X96060000Y-116840000D01*
X111990000Y-105410000D02*
X111300000Y-105410000D01*
X101370000Y-105410000D02*
X102060000Y-105410000D01*
X111300000Y-103690000D02*
X102060000Y-103690000D01*
X111300000Y-107130000D02*
X111300000Y-103690000D01*
X102060000Y-107130000D02*
X111300000Y-107130000D01*
X102060000Y-103690000D02*
X102060000Y-107130000D01*
X102060000Y-107500000D02*
X102060000Y-110940000D01*
X102060000Y-110940000D02*
X111300000Y-110940000D01*
X111300000Y-110940000D02*
X111300000Y-107500000D01*
X111300000Y-107500000D02*
X102060000Y-107500000D01*
X101370000Y-109220000D02*
X102060000Y-109220000D01*
X111990000Y-109220000D02*
X111300000Y-109220000D01*
X111990000Y-113030000D02*
X111300000Y-113030000D01*
X101370000Y-113030000D02*
X102060000Y-113030000D01*
X111300000Y-111310000D02*
X102060000Y-111310000D01*
X111300000Y-114750000D02*
X111300000Y-111310000D01*
X102060000Y-114750000D02*
X111300000Y-114750000D01*
X102060000Y-111310000D02*
X102060000Y-114750000D01*
X102060000Y-115120000D02*
X102060000Y-118560000D01*
X102060000Y-118560000D02*
X111300000Y-118560000D01*
X111300000Y-118560000D02*
X111300000Y-115120000D01*
X111300000Y-115120000D02*
X102060000Y-115120000D01*
X101370000Y-116840000D02*
X102060000Y-116840000D01*
X111990000Y-116840000D02*
X111300000Y-116840000D01*
X172950000Y-66040000D02*
X172260000Y-66040000D01*
X162330000Y-66040000D02*
X163020000Y-66040000D01*
X172260000Y-64320000D02*
X163020000Y-64320000D01*
X172260000Y-67760000D02*
X172260000Y-64320000D01*
X163020000Y-67760000D02*
X172260000Y-67760000D01*
X163020000Y-64320000D02*
X163020000Y-67760000D01*
X163020000Y-76580000D02*
X163020000Y-80020000D01*
X163020000Y-80020000D02*
X172260000Y-80020000D01*
X172260000Y-80020000D02*
X172260000Y-76580000D01*
X172260000Y-76580000D02*
X163020000Y-76580000D01*
X162330000Y-78300000D02*
X163020000Y-78300000D01*
X172950000Y-78300000D02*
X172260000Y-78300000D01*
X113030000Y-93520000D02*
X113030000Y-92830000D01*
X113030000Y-82900000D02*
X113030000Y-83590000D01*
X114750000Y-92830000D02*
X114750000Y-83590000D01*
X111310000Y-92830000D02*
X114750000Y-92830000D01*
X111310000Y-83590000D02*
X111310000Y-92830000D01*
X114750000Y-83590000D02*
X111310000Y-83590000D01*
X172950000Y-90300000D02*
X172260000Y-90300000D01*
X162330000Y-90300000D02*
X163020000Y-90300000D01*
X172260000Y-88580000D02*
X163020000Y-88580000D01*
X172260000Y-92020000D02*
X172260000Y-88580000D01*
X163020000Y-92020000D02*
X172260000Y-92020000D01*
X163020000Y-88580000D02*
X163020000Y-92020000D01*
X118560000Y-83590000D02*
X115120000Y-83590000D01*
X115120000Y-83590000D02*
X115120000Y-92830000D01*
X115120000Y-92830000D02*
X118560000Y-92830000D01*
X118560000Y-92830000D02*
X118560000Y-83590000D01*
X116840000Y-82900000D02*
X116840000Y-83590000D01*
X116840000Y-93520000D02*
X116840000Y-92830000D01*
X163030000Y-100780000D02*
X163030000Y-104220000D01*
X163030000Y-104220000D02*
X172270000Y-104220000D01*
X172270000Y-104220000D02*
X172270000Y-100780000D01*
X172270000Y-100780000D02*
X163030000Y-100780000D01*
X162340000Y-102500000D02*
X163030000Y-102500000D01*
X172960000Y-102500000D02*
X172270000Y-102500000D01*
D13*
X129742857Y-104566666D02*
X130219047Y-104566666D01*
X129647619Y-104852380D02*
X129980952Y-103852380D01*
X130314285Y-104852380D01*
X130647619Y-104852380D02*
X130647619Y-104185714D01*
X130647619Y-104376190D02*
X130695238Y-104280952D01*
X130742857Y-104233333D01*
X130838095Y-104185714D01*
X130933333Y-104185714D01*
X131695238Y-104852380D02*
X131695238Y-103852380D01*
X131695238Y-104804761D02*
X131600000Y-104852380D01*
X131409523Y-104852380D01*
X131314285Y-104804761D01*
X131266666Y-104757142D01*
X131219047Y-104661904D01*
X131219047Y-104376190D01*
X131266666Y-104280952D01*
X131314285Y-104233333D01*
X131409523Y-104185714D01*
X131600000Y-104185714D01*
X131695238Y-104233333D01*
X132600000Y-104185714D02*
X132600000Y-104852380D01*
X132171428Y-104185714D02*
X132171428Y-104709523D01*
X132219047Y-104804761D01*
X132314285Y-104852380D01*
X132457142Y-104852380D01*
X132552380Y-104804761D01*
X132600000Y-104757142D01*
X133076190Y-104852380D02*
X133076190Y-104185714D01*
X133076190Y-103852380D02*
X133028571Y-103900000D01*
X133076190Y-103947619D01*
X133123809Y-103900000D01*
X133076190Y-103852380D01*
X133076190Y-103947619D01*
X133552380Y-104185714D02*
X133552380Y-104852380D01*
X133552380Y-104280952D02*
X133600000Y-104233333D01*
X133695238Y-104185714D01*
X133838095Y-104185714D01*
X133933333Y-104233333D01*
X133980952Y-104328571D01*
X133980952Y-104852380D01*
X134600000Y-104852380D02*
X134504761Y-104804761D01*
X134457142Y-104757142D01*
X134409523Y-104661904D01*
X134409523Y-104376190D01*
X134457142Y-104280952D01*
X134504761Y-104233333D01*
X134600000Y-104185714D01*
X134742857Y-104185714D01*
X134838095Y-104233333D01*
X134885714Y-104280952D01*
X134933333Y-104376190D01*
X134933333Y-104661904D01*
X134885714Y-104757142D01*
X134838095Y-104804761D01*
X134742857Y-104852380D01*
X134600000Y-104852380D01*
X135123809Y-104947619D02*
X135885714Y-104947619D01*
X136123809Y-104852380D02*
X136123809Y-103852380D01*
X136695238Y-104852380D01*
X136695238Y-103852380D01*
X137600000Y-104852380D02*
X137600000Y-104328571D01*
X137552380Y-104233333D01*
X137457142Y-104185714D01*
X137266666Y-104185714D01*
X137171428Y-104233333D01*
X137600000Y-104804761D02*
X137504761Y-104852380D01*
X137266666Y-104852380D01*
X137171428Y-104804761D01*
X137123809Y-104709523D01*
X137123809Y-104614285D01*
X137171428Y-104519047D01*
X137266666Y-104471428D01*
X137504761Y-104471428D01*
X137600000Y-104423809D01*
X138076190Y-104185714D02*
X138076190Y-104852380D01*
X138076190Y-104280952D02*
X138123809Y-104233333D01*
X138219047Y-104185714D01*
X138361904Y-104185714D01*
X138457142Y-104233333D01*
X138504761Y-104328571D01*
X138504761Y-104852380D01*
X139123809Y-104852380D02*
X139028571Y-104804761D01*
X138980952Y-104757142D01*
X138933333Y-104661904D01*
X138933333Y-104376190D01*
X138980952Y-104280952D01*
X139028571Y-104233333D01*
X139123809Y-104185714D01*
X139266666Y-104185714D01*
X139361904Y-104233333D01*
X139409523Y-104280952D01*
X139457142Y-104376190D01*
X139457142Y-104661904D01*
X139409523Y-104757142D01*
X139361904Y-104804761D01*
X139266666Y-104852380D01*
X139123809Y-104852380D01*
X88928571Y-62166666D02*
X89404761Y-62166666D01*
X88833333Y-62452380D02*
X89166666Y-61452380D01*
X89500000Y-62452380D01*
X90166666Y-61928571D02*
X89833333Y-61928571D01*
X89833333Y-62452380D02*
X89833333Y-61452380D01*
X90309523Y-61452380D01*
X91023809Y-61928571D02*
X90690476Y-61928571D01*
X90690476Y-62452380D02*
X90690476Y-61452380D01*
X91166666Y-61452380D01*
X92071428Y-62452380D02*
X91500000Y-62452380D01*
X91785714Y-62452380D02*
X91785714Y-61452380D01*
X91690476Y-61595238D01*
X91595238Y-61690476D01*
X91500000Y-61738095D01*
X102528571Y-62266666D02*
X103004761Y-62266666D01*
X102433333Y-62552380D02*
X102766666Y-61552380D01*
X103100000Y-62552380D01*
X103766666Y-62028571D02*
X103433333Y-62028571D01*
X103433333Y-62552380D02*
X103433333Y-61552380D01*
X103909523Y-61552380D01*
X104623809Y-62028571D02*
X104290476Y-62028571D01*
X104290476Y-62552380D02*
X104290476Y-61552380D01*
X104766666Y-61552380D01*
X105100000Y-61647619D02*
X105147619Y-61600000D01*
X105242857Y-61552380D01*
X105480952Y-61552380D01*
X105576190Y-61600000D01*
X105623809Y-61647619D01*
X105671428Y-61742857D01*
X105671428Y-61838095D01*
X105623809Y-61980952D01*
X105052380Y-62552380D01*
X105671428Y-62552380D01*
X123828571Y-62166666D02*
X124304761Y-62166666D01*
X123733333Y-62452380D02*
X124066666Y-61452380D01*
X124400000Y-62452380D01*
X125066666Y-61928571D02*
X124733333Y-61928571D01*
X124733333Y-62452380D02*
X124733333Y-61452380D01*
X125209523Y-61452380D01*
X125923809Y-61928571D02*
X125590476Y-61928571D01*
X125590476Y-62452380D02*
X125590476Y-61452380D01*
X126066666Y-61452380D01*
X126352380Y-61452380D02*
X126971428Y-61452380D01*
X126638095Y-61833333D01*
X126780952Y-61833333D01*
X126876190Y-61880952D01*
X126923809Y-61928571D01*
X126971428Y-62023809D01*
X126971428Y-62261904D01*
X126923809Y-62357142D01*
X126876190Y-62404761D01*
X126780952Y-62452380D01*
X126495238Y-62452380D01*
X126400000Y-62404761D01*
X126352380Y-62357142D01*
X137828571Y-62166666D02*
X138304761Y-62166666D01*
X137733333Y-62452380D02*
X138066666Y-61452380D01*
X138400000Y-62452380D01*
X139066666Y-61928571D02*
X138733333Y-61928571D01*
X138733333Y-62452380D02*
X138733333Y-61452380D01*
X139209523Y-61452380D01*
X139923809Y-61928571D02*
X139590476Y-61928571D01*
X139590476Y-62452380D02*
X139590476Y-61452380D01*
X140066666Y-61452380D01*
X140876190Y-61785714D02*
X140876190Y-62452380D01*
X140638095Y-61404761D02*
X140400000Y-62119047D01*
X141019047Y-62119047D01*
X88628571Y-90366666D02*
X89104761Y-90366666D01*
X88533333Y-90652380D02*
X88866666Y-89652380D01*
X89200000Y-90652380D01*
X89866666Y-90128571D02*
X89533333Y-90128571D01*
X89533333Y-90652380D02*
X89533333Y-89652380D01*
X90009523Y-89652380D01*
X90723809Y-90128571D02*
X90390476Y-90128571D01*
X90390476Y-90652380D02*
X90390476Y-89652380D01*
X90866666Y-89652380D01*
X91723809Y-89652380D02*
X91247619Y-89652380D01*
X91200000Y-90128571D01*
X91247619Y-90080952D01*
X91342857Y-90033333D01*
X91580952Y-90033333D01*
X91676190Y-90080952D01*
X91723809Y-90128571D01*
X91771428Y-90223809D01*
X91771428Y-90461904D01*
X91723809Y-90557142D01*
X91676190Y-90604761D01*
X91580952Y-90652380D01*
X91342857Y-90652380D01*
X91247619Y-90604761D01*
X91200000Y-90557142D01*
X102228571Y-90466666D02*
X102704761Y-90466666D01*
X102133333Y-90752380D02*
X102466666Y-89752380D01*
X102800000Y-90752380D01*
X103466666Y-90228571D02*
X103133333Y-90228571D01*
X103133333Y-90752380D02*
X103133333Y-89752380D01*
X103609523Y-89752380D01*
X104323809Y-90228571D02*
X103990476Y-90228571D01*
X103990476Y-90752380D02*
X103990476Y-89752380D01*
X104466666Y-89752380D01*
X105276190Y-89752380D02*
X105085714Y-89752380D01*
X104990476Y-89800000D01*
X104942857Y-89847619D01*
X104847619Y-89990476D01*
X104800000Y-90180952D01*
X104800000Y-90561904D01*
X104847619Y-90657142D01*
X104895238Y-90704761D01*
X104990476Y-90752380D01*
X105180952Y-90752380D01*
X105276190Y-90704761D01*
X105323809Y-90657142D01*
X105371428Y-90561904D01*
X105371428Y-90323809D01*
X105323809Y-90228571D01*
X105276190Y-90180952D01*
X105180952Y-90133333D01*
X104990476Y-90133333D01*
X104895238Y-90180952D01*
X104847619Y-90228571D01*
X104800000Y-90323809D01*
X123928571Y-90466666D02*
X124404761Y-90466666D01*
X123833333Y-90752380D02*
X124166666Y-89752380D01*
X124500000Y-90752380D01*
X125166666Y-90228571D02*
X124833333Y-90228571D01*
X124833333Y-90752380D02*
X124833333Y-89752380D01*
X125309523Y-89752380D01*
X126023809Y-90228571D02*
X125690476Y-90228571D01*
X125690476Y-90752380D02*
X125690476Y-89752380D01*
X126166666Y-89752380D01*
X126452380Y-89752380D02*
X127119047Y-89752380D01*
X126690476Y-90752380D01*
X137728571Y-90566666D02*
X138204761Y-90566666D01*
X137633333Y-90852380D02*
X137966666Y-89852380D01*
X138300000Y-90852380D01*
X138966666Y-90328571D02*
X138633333Y-90328571D01*
X138633333Y-90852380D02*
X138633333Y-89852380D01*
X139109523Y-89852380D01*
X139823809Y-90328571D02*
X139490476Y-90328571D01*
X139490476Y-90852380D02*
X139490476Y-89852380D01*
X139966666Y-89852380D01*
X140490476Y-90280952D02*
X140395238Y-90233333D01*
X140347619Y-90185714D01*
X140300000Y-90090476D01*
X140300000Y-90042857D01*
X140347619Y-89947619D01*
X140395238Y-89900000D01*
X140490476Y-89852380D01*
X140680952Y-89852380D01*
X140776190Y-89900000D01*
X140823809Y-89947619D01*
X140871428Y-90042857D01*
X140871428Y-90090476D01*
X140823809Y-90185714D01*
X140776190Y-90233333D01*
X140680952Y-90280952D01*
X140490476Y-90280952D01*
X140395238Y-90328571D01*
X140347619Y-90376190D01*
X140300000Y-90471428D01*
X140300000Y-90661904D01*
X140347619Y-90757142D01*
X140395238Y-90804761D01*
X140490476Y-90852380D01*
X140680952Y-90852380D01*
X140776190Y-90804761D01*
X140823809Y-90757142D01*
X140871428Y-90661904D01*
X140871428Y-90471428D01*
X140823809Y-90376190D01*
X140776190Y-90328571D01*
X140680952Y-90280952D01*
X114691904Y-58292380D02*
X114691904Y-57292380D01*
X114930000Y-57292380D01*
X115072857Y-57340000D01*
X115168095Y-57435238D01*
X115215714Y-57530476D01*
X115263333Y-57720952D01*
X115263333Y-57863809D01*
X115215714Y-58054285D01*
X115168095Y-58149523D01*
X115072857Y-58244761D01*
X114930000Y-58292380D01*
X114691904Y-58292380D01*
X116215714Y-58292380D02*
X115644285Y-58292380D01*
X115930000Y-58292380D02*
X115930000Y-57292380D01*
X115834761Y-57435238D01*
X115739523Y-57530476D01*
X115644285Y-57578095D01*
X114891904Y-66392380D02*
X114891904Y-65392380D01*
X115130000Y-65392380D01*
X115272857Y-65440000D01*
X115368095Y-65535238D01*
X115415714Y-65630476D01*
X115463333Y-65820952D01*
X115463333Y-65963809D01*
X115415714Y-66154285D01*
X115368095Y-66249523D01*
X115272857Y-66344761D01*
X115130000Y-66392380D01*
X114891904Y-66392380D01*
X115844285Y-65487619D02*
X115891904Y-65440000D01*
X115987142Y-65392380D01*
X116225238Y-65392380D01*
X116320476Y-65440000D01*
X116368095Y-65487619D01*
X116415714Y-65582857D01*
X116415714Y-65678095D01*
X116368095Y-65820952D01*
X115796666Y-66392380D01*
X116415714Y-66392380D01*
X87554761Y-75727619D02*
X87459523Y-75680000D01*
X87364285Y-75584761D01*
X87221428Y-75441904D01*
X87126190Y-75394285D01*
X87030952Y-75394285D01*
X87078571Y-75632380D02*
X86983333Y-75584761D01*
X86888095Y-75489523D01*
X86840476Y-75299047D01*
X86840476Y-74965714D01*
X86888095Y-74775238D01*
X86983333Y-74680000D01*
X87078571Y-74632380D01*
X87269047Y-74632380D01*
X87364285Y-74680000D01*
X87459523Y-74775238D01*
X87507142Y-74965714D01*
X87507142Y-75299047D01*
X87459523Y-75489523D01*
X87364285Y-75584761D01*
X87269047Y-75632380D01*
X87078571Y-75632380D01*
X88459523Y-75632380D02*
X87888095Y-75632380D01*
X88173809Y-75632380D02*
X88173809Y-74632380D01*
X88078571Y-74775238D01*
X87983333Y-74870476D01*
X87888095Y-74918095D01*
X93904761Y-75727619D02*
X93809523Y-75680000D01*
X93714285Y-75584761D01*
X93571428Y-75441904D01*
X93476190Y-75394285D01*
X93380952Y-75394285D01*
X93428571Y-75632380D02*
X93333333Y-75584761D01*
X93238095Y-75489523D01*
X93190476Y-75299047D01*
X93190476Y-74965714D01*
X93238095Y-74775238D01*
X93333333Y-74680000D01*
X93428571Y-74632380D01*
X93619047Y-74632380D01*
X93714285Y-74680000D01*
X93809523Y-74775238D01*
X93857142Y-74965714D01*
X93857142Y-75299047D01*
X93809523Y-75489523D01*
X93714285Y-75584761D01*
X93619047Y-75632380D01*
X93428571Y-75632380D01*
X94238095Y-74727619D02*
X94285714Y-74680000D01*
X94380952Y-74632380D01*
X94619047Y-74632380D01*
X94714285Y-74680000D01*
X94761904Y-74727619D01*
X94809523Y-74822857D01*
X94809523Y-74918095D01*
X94761904Y-75060952D01*
X94190476Y-75632380D01*
X94809523Y-75632380D01*
X123114761Y-75727619D02*
X123019523Y-75680000D01*
X122924285Y-75584761D01*
X122781428Y-75441904D01*
X122686190Y-75394285D01*
X122590952Y-75394285D01*
X122638571Y-75632380D02*
X122543333Y-75584761D01*
X122448095Y-75489523D01*
X122400476Y-75299047D01*
X122400476Y-74965714D01*
X122448095Y-74775238D01*
X122543333Y-74680000D01*
X122638571Y-74632380D01*
X122829047Y-74632380D01*
X122924285Y-74680000D01*
X123019523Y-74775238D01*
X123067142Y-74965714D01*
X123067142Y-75299047D01*
X123019523Y-75489523D01*
X122924285Y-75584761D01*
X122829047Y-75632380D01*
X122638571Y-75632380D01*
X123400476Y-74632380D02*
X124019523Y-74632380D01*
X123686190Y-75013333D01*
X123829047Y-75013333D01*
X123924285Y-75060952D01*
X123971904Y-75108571D01*
X124019523Y-75203809D01*
X124019523Y-75441904D01*
X123971904Y-75537142D01*
X123924285Y-75584761D01*
X123829047Y-75632380D01*
X123543333Y-75632380D01*
X123448095Y-75584761D01*
X123400476Y-75537142D01*
X129464761Y-75727619D02*
X129369523Y-75680000D01*
X129274285Y-75584761D01*
X129131428Y-75441904D01*
X129036190Y-75394285D01*
X128940952Y-75394285D01*
X128988571Y-75632380D02*
X128893333Y-75584761D01*
X128798095Y-75489523D01*
X128750476Y-75299047D01*
X128750476Y-74965714D01*
X128798095Y-74775238D01*
X128893333Y-74680000D01*
X128988571Y-74632380D01*
X129179047Y-74632380D01*
X129274285Y-74680000D01*
X129369523Y-74775238D01*
X129417142Y-74965714D01*
X129417142Y-75299047D01*
X129369523Y-75489523D01*
X129274285Y-75584761D01*
X129179047Y-75632380D01*
X128988571Y-75632380D01*
X130274285Y-74965714D02*
X130274285Y-75632380D01*
X130036190Y-74584761D02*
X129798095Y-75299047D01*
X130417142Y-75299047D01*
X100254761Y-75727619D02*
X100159523Y-75680000D01*
X100064285Y-75584761D01*
X99921428Y-75441904D01*
X99826190Y-75394285D01*
X99730952Y-75394285D01*
X99778571Y-75632380D02*
X99683333Y-75584761D01*
X99588095Y-75489523D01*
X99540476Y-75299047D01*
X99540476Y-74965714D01*
X99588095Y-74775238D01*
X99683333Y-74680000D01*
X99778571Y-74632380D01*
X99969047Y-74632380D01*
X100064285Y-74680000D01*
X100159523Y-74775238D01*
X100207142Y-74965714D01*
X100207142Y-75299047D01*
X100159523Y-75489523D01*
X100064285Y-75584761D01*
X99969047Y-75632380D01*
X99778571Y-75632380D01*
X101111904Y-74632380D02*
X100635714Y-74632380D01*
X100588095Y-75108571D01*
X100635714Y-75060952D01*
X100730952Y-75013333D01*
X100969047Y-75013333D01*
X101064285Y-75060952D01*
X101111904Y-75108571D01*
X101159523Y-75203809D01*
X101159523Y-75441904D01*
X101111904Y-75537142D01*
X101064285Y-75584761D01*
X100969047Y-75632380D01*
X100730952Y-75632380D01*
X100635714Y-75584761D01*
X100588095Y-75537142D01*
X106604761Y-75727619D02*
X106509523Y-75680000D01*
X106414285Y-75584761D01*
X106271428Y-75441904D01*
X106176190Y-75394285D01*
X106080952Y-75394285D01*
X106128571Y-75632380D02*
X106033333Y-75584761D01*
X105938095Y-75489523D01*
X105890476Y-75299047D01*
X105890476Y-74965714D01*
X105938095Y-74775238D01*
X106033333Y-74680000D01*
X106128571Y-74632380D01*
X106319047Y-74632380D01*
X106414285Y-74680000D01*
X106509523Y-74775238D01*
X106557142Y-74965714D01*
X106557142Y-75299047D01*
X106509523Y-75489523D01*
X106414285Y-75584761D01*
X106319047Y-75632380D01*
X106128571Y-75632380D01*
X107414285Y-74632380D02*
X107223809Y-74632380D01*
X107128571Y-74680000D01*
X107080952Y-74727619D01*
X106985714Y-74870476D01*
X106938095Y-75060952D01*
X106938095Y-75441904D01*
X106985714Y-75537142D01*
X107033333Y-75584761D01*
X107128571Y-75632380D01*
X107319047Y-75632380D01*
X107414285Y-75584761D01*
X107461904Y-75537142D01*
X107509523Y-75441904D01*
X107509523Y-75203809D01*
X107461904Y-75108571D01*
X107414285Y-75060952D01*
X107319047Y-75013333D01*
X107128571Y-75013333D01*
X107033333Y-75060952D01*
X106985714Y-75108571D01*
X106938095Y-75203809D01*
X135814761Y-75727619D02*
X135719523Y-75680000D01*
X135624285Y-75584761D01*
X135481428Y-75441904D01*
X135386190Y-75394285D01*
X135290952Y-75394285D01*
X135338571Y-75632380D02*
X135243333Y-75584761D01*
X135148095Y-75489523D01*
X135100476Y-75299047D01*
X135100476Y-74965714D01*
X135148095Y-74775238D01*
X135243333Y-74680000D01*
X135338571Y-74632380D01*
X135529047Y-74632380D01*
X135624285Y-74680000D01*
X135719523Y-74775238D01*
X135767142Y-74965714D01*
X135767142Y-75299047D01*
X135719523Y-75489523D01*
X135624285Y-75584761D01*
X135529047Y-75632380D01*
X135338571Y-75632380D01*
X136100476Y-74632380D02*
X136767142Y-74632380D01*
X136338571Y-75632380D01*
X142164761Y-75727619D02*
X142069523Y-75680000D01*
X141974285Y-75584761D01*
X141831428Y-75441904D01*
X141736190Y-75394285D01*
X141640952Y-75394285D01*
X141688571Y-75632380D02*
X141593333Y-75584761D01*
X141498095Y-75489523D01*
X141450476Y-75299047D01*
X141450476Y-74965714D01*
X141498095Y-74775238D01*
X141593333Y-74680000D01*
X141688571Y-74632380D01*
X141879047Y-74632380D01*
X141974285Y-74680000D01*
X142069523Y-74775238D01*
X142117142Y-74965714D01*
X142117142Y-75299047D01*
X142069523Y-75489523D01*
X141974285Y-75584761D01*
X141879047Y-75632380D01*
X141688571Y-75632380D01*
X142688571Y-75060952D02*
X142593333Y-75013333D01*
X142545714Y-74965714D01*
X142498095Y-74870476D01*
X142498095Y-74822857D01*
X142545714Y-74727619D01*
X142593333Y-74680000D01*
X142688571Y-74632380D01*
X142879047Y-74632380D01*
X142974285Y-74680000D01*
X143021904Y-74727619D01*
X143069523Y-74822857D01*
X143069523Y-74870476D01*
X143021904Y-74965714D01*
X142974285Y-75013333D01*
X142879047Y-75060952D01*
X142688571Y-75060952D01*
X142593333Y-75108571D01*
X142545714Y-75156190D01*
X142498095Y-75251428D01*
X142498095Y-75441904D01*
X142545714Y-75537142D01*
X142593333Y-75584761D01*
X142688571Y-75632380D01*
X142879047Y-75632380D01*
X142974285Y-75584761D01*
X143021904Y-75537142D01*
X143069523Y-75441904D01*
X143069523Y-75251428D01*
X143021904Y-75156190D01*
X142974285Y-75108571D01*
X142879047Y-75060952D01*
X162366666Y-56804761D02*
X162509523Y-56852380D01*
X162747619Y-56852380D01*
X162842857Y-56804761D01*
X162890476Y-56757142D01*
X162938095Y-56661904D01*
X162938095Y-56566666D01*
X162890476Y-56471428D01*
X162842857Y-56423809D01*
X162747619Y-56376190D01*
X162557142Y-56328571D01*
X162461904Y-56280952D01*
X162414285Y-56233333D01*
X162366666Y-56138095D01*
X162366666Y-56042857D01*
X162414285Y-55947619D01*
X162461904Y-55900000D01*
X162557142Y-55852380D01*
X162795238Y-55852380D01*
X162938095Y-55900000D01*
X163271428Y-55852380D02*
X163509523Y-56852380D01*
X163700000Y-56138095D01*
X163890476Y-56852380D01*
X164128571Y-55852380D01*
X165033333Y-56852380D02*
X164461904Y-56852380D01*
X164747619Y-56852380D02*
X164747619Y-55852380D01*
X164652380Y-55995238D01*
X164557142Y-56090476D01*
X164461904Y-56138095D01*
X162166666Y-69604761D02*
X162309523Y-69652380D01*
X162547619Y-69652380D01*
X162642857Y-69604761D01*
X162690476Y-69557142D01*
X162738095Y-69461904D01*
X162738095Y-69366666D01*
X162690476Y-69271428D01*
X162642857Y-69223809D01*
X162547619Y-69176190D01*
X162357142Y-69128571D01*
X162261904Y-69080952D01*
X162214285Y-69033333D01*
X162166666Y-68938095D01*
X162166666Y-68842857D01*
X162214285Y-68747619D01*
X162261904Y-68700000D01*
X162357142Y-68652380D01*
X162595238Y-68652380D01*
X162738095Y-68700000D01*
X163071428Y-68652380D02*
X163309523Y-69652380D01*
X163500000Y-68938095D01*
X163690476Y-69652380D01*
X163928571Y-68652380D01*
X164261904Y-68747619D02*
X164309523Y-68700000D01*
X164404761Y-68652380D01*
X164642857Y-68652380D01*
X164738095Y-68700000D01*
X164785714Y-68747619D01*
X164833333Y-68842857D01*
X164833333Y-68938095D01*
X164785714Y-69080952D01*
X164214285Y-69652380D01*
X164833333Y-69652380D01*
X162066666Y-82004761D02*
X162209523Y-82052380D01*
X162447619Y-82052380D01*
X162542857Y-82004761D01*
X162590476Y-81957142D01*
X162638095Y-81861904D01*
X162638095Y-81766666D01*
X162590476Y-81671428D01*
X162542857Y-81623809D01*
X162447619Y-81576190D01*
X162257142Y-81528571D01*
X162161904Y-81480952D01*
X162114285Y-81433333D01*
X162066666Y-81338095D01*
X162066666Y-81242857D01*
X162114285Y-81147619D01*
X162161904Y-81100000D01*
X162257142Y-81052380D01*
X162495238Y-81052380D01*
X162638095Y-81100000D01*
X162971428Y-81052380D02*
X163209523Y-82052380D01*
X163400000Y-81338095D01*
X163590476Y-82052380D01*
X163828571Y-81052380D01*
X164114285Y-81052380D02*
X164733333Y-81052380D01*
X164400000Y-81433333D01*
X164542857Y-81433333D01*
X164638095Y-81480952D01*
X164685714Y-81528571D01*
X164733333Y-81623809D01*
X164733333Y-81861904D01*
X164685714Y-81957142D01*
X164638095Y-82004761D01*
X164542857Y-82052380D01*
X164257142Y-82052380D01*
X164161904Y-82004761D01*
X164114285Y-81957142D01*
X162166666Y-93704761D02*
X162309523Y-93752380D01*
X162547619Y-93752380D01*
X162642857Y-93704761D01*
X162690476Y-93657142D01*
X162738095Y-93561904D01*
X162738095Y-93466666D01*
X162690476Y-93371428D01*
X162642857Y-93323809D01*
X162547619Y-93276190D01*
X162357142Y-93228571D01*
X162261904Y-93180952D01*
X162214285Y-93133333D01*
X162166666Y-93038095D01*
X162166666Y-92942857D01*
X162214285Y-92847619D01*
X162261904Y-92800000D01*
X162357142Y-92752380D01*
X162595238Y-92752380D01*
X162738095Y-92800000D01*
X163071428Y-92752380D02*
X163309523Y-93752380D01*
X163500000Y-93038095D01*
X163690476Y-93752380D01*
X163928571Y-92752380D01*
X164738095Y-93085714D02*
X164738095Y-93752380D01*
X164500000Y-92704761D02*
X164261904Y-93419047D01*
X164880952Y-93419047D01*
X154178095Y-88452380D02*
X154178095Y-89261904D01*
X154225714Y-89357142D01*
X154273333Y-89404761D01*
X154368571Y-89452380D01*
X154559047Y-89452380D01*
X154654285Y-89404761D01*
X154701904Y-89357142D01*
X154749523Y-89261904D01*
X154749523Y-88452380D01*
X155749523Y-89452380D02*
X155178095Y-89452380D01*
X155463809Y-89452380D02*
X155463809Y-88452380D01*
X155368571Y-88595238D01*
X155273333Y-88690476D01*
X155178095Y-88738095D01*
X154178095Y-65452380D02*
X154178095Y-66261904D01*
X154225714Y-66357142D01*
X154273333Y-66404761D01*
X154368571Y-66452380D01*
X154559047Y-66452380D01*
X154654285Y-66404761D01*
X154701904Y-66357142D01*
X154749523Y-66261904D01*
X154749523Y-65452380D01*
X155178095Y-65547619D02*
X155225714Y-65500000D01*
X155320952Y-65452380D01*
X155559047Y-65452380D01*
X155654285Y-65500000D01*
X155701904Y-65547619D01*
X155749523Y-65642857D01*
X155749523Y-65738095D01*
X155701904Y-65880952D01*
X155130476Y-66452380D01*
X155749523Y-66452380D01*
X116128571Y-106552380D02*
X115795238Y-106076190D01*
X115557142Y-106552380D02*
X115557142Y-105552380D01*
X115938095Y-105552380D01*
X116033333Y-105600000D01*
X116080952Y-105647619D01*
X116128571Y-105742857D01*
X116128571Y-105885714D01*
X116080952Y-105980952D01*
X116033333Y-106028571D01*
X115938095Y-106076190D01*
X115557142Y-106076190D01*
X116414285Y-105552380D02*
X116985714Y-105552380D01*
X116700000Y-106552380D02*
X116700000Y-105552380D01*
X117890476Y-106457142D02*
X117842857Y-106504761D01*
X117700000Y-106552380D01*
X117604761Y-106552380D01*
X117461904Y-106504761D01*
X117366666Y-106409523D01*
X117319047Y-106314285D01*
X117271428Y-106123809D01*
X117271428Y-105980952D01*
X117319047Y-105790476D01*
X117366666Y-105695238D01*
X117461904Y-105600000D01*
X117604761Y-105552380D01*
X117700000Y-105552380D01*
X117842857Y-105600000D01*
X117890476Y-105647619D01*
X91273333Y-105952380D02*
X90940000Y-105476190D01*
X90701904Y-105952380D02*
X90701904Y-104952380D01*
X91082857Y-104952380D01*
X91178095Y-105000000D01*
X91225714Y-105047619D01*
X91273333Y-105142857D01*
X91273333Y-105285714D01*
X91225714Y-105380952D01*
X91178095Y-105428571D01*
X91082857Y-105476190D01*
X90701904Y-105476190D01*
X92225714Y-105952380D02*
X91654285Y-105952380D01*
X91940000Y-105952380D02*
X91940000Y-104952380D01*
X91844761Y-105095238D01*
X91749523Y-105190476D01*
X91654285Y-105238095D01*
X91273333Y-109652380D02*
X90940000Y-109176190D01*
X90701904Y-109652380D02*
X90701904Y-108652380D01*
X91082857Y-108652380D01*
X91178095Y-108700000D01*
X91225714Y-108747619D01*
X91273333Y-108842857D01*
X91273333Y-108985714D01*
X91225714Y-109080952D01*
X91178095Y-109128571D01*
X91082857Y-109176190D01*
X90701904Y-109176190D01*
X91654285Y-108747619D02*
X91701904Y-108700000D01*
X91797142Y-108652380D01*
X92035238Y-108652380D01*
X92130476Y-108700000D01*
X92178095Y-108747619D01*
X92225714Y-108842857D01*
X92225714Y-108938095D01*
X92178095Y-109080952D01*
X91606666Y-109652380D01*
X92225714Y-109652380D01*
X91273333Y-113452380D02*
X90940000Y-112976190D01*
X90701904Y-113452380D02*
X90701904Y-112452380D01*
X91082857Y-112452380D01*
X91178095Y-112500000D01*
X91225714Y-112547619D01*
X91273333Y-112642857D01*
X91273333Y-112785714D01*
X91225714Y-112880952D01*
X91178095Y-112928571D01*
X91082857Y-112976190D01*
X90701904Y-112976190D01*
X91606666Y-112452380D02*
X92225714Y-112452380D01*
X91892380Y-112833333D01*
X92035238Y-112833333D01*
X92130476Y-112880952D01*
X92178095Y-112928571D01*
X92225714Y-113023809D01*
X92225714Y-113261904D01*
X92178095Y-113357142D01*
X92130476Y-113404761D01*
X92035238Y-113452380D01*
X91749523Y-113452380D01*
X91654285Y-113404761D01*
X91606666Y-113357142D01*
X91273333Y-117252380D02*
X90940000Y-116776190D01*
X90701904Y-117252380D02*
X90701904Y-116252380D01*
X91082857Y-116252380D01*
X91178095Y-116300000D01*
X91225714Y-116347619D01*
X91273333Y-116442857D01*
X91273333Y-116585714D01*
X91225714Y-116680952D01*
X91178095Y-116728571D01*
X91082857Y-116776190D01*
X90701904Y-116776190D01*
X92130476Y-116585714D02*
X92130476Y-117252380D01*
X91892380Y-116204761D02*
X91654285Y-116919047D01*
X92273333Y-116919047D01*
X106533333Y-105852380D02*
X106200000Y-105376190D01*
X105961904Y-105852380D02*
X105961904Y-104852380D01*
X106342857Y-104852380D01*
X106438095Y-104900000D01*
X106485714Y-104947619D01*
X106533333Y-105042857D01*
X106533333Y-105185714D01*
X106485714Y-105280952D01*
X106438095Y-105328571D01*
X106342857Y-105376190D01*
X105961904Y-105376190D01*
X107438095Y-104852380D02*
X106961904Y-104852380D01*
X106914285Y-105328571D01*
X106961904Y-105280952D01*
X107057142Y-105233333D01*
X107295238Y-105233333D01*
X107390476Y-105280952D01*
X107438095Y-105328571D01*
X107485714Y-105423809D01*
X107485714Y-105661904D01*
X107438095Y-105757142D01*
X107390476Y-105804761D01*
X107295238Y-105852380D01*
X107057142Y-105852380D01*
X106961904Y-105804761D01*
X106914285Y-105757142D01*
X106513333Y-109652380D02*
X106180000Y-109176190D01*
X105941904Y-109652380D02*
X105941904Y-108652380D01*
X106322857Y-108652380D01*
X106418095Y-108700000D01*
X106465714Y-108747619D01*
X106513333Y-108842857D01*
X106513333Y-108985714D01*
X106465714Y-109080952D01*
X106418095Y-109128571D01*
X106322857Y-109176190D01*
X105941904Y-109176190D01*
X107370476Y-108652380D02*
X107180000Y-108652380D01*
X107084761Y-108700000D01*
X107037142Y-108747619D01*
X106941904Y-108890476D01*
X106894285Y-109080952D01*
X106894285Y-109461904D01*
X106941904Y-109557142D01*
X106989523Y-109604761D01*
X107084761Y-109652380D01*
X107275238Y-109652380D01*
X107370476Y-109604761D01*
X107418095Y-109557142D01*
X107465714Y-109461904D01*
X107465714Y-109223809D01*
X107418095Y-109128571D01*
X107370476Y-109080952D01*
X107275238Y-109033333D01*
X107084761Y-109033333D01*
X106989523Y-109080952D01*
X106941904Y-109128571D01*
X106894285Y-109223809D01*
X106533333Y-113452380D02*
X106200000Y-112976190D01*
X105961904Y-113452380D02*
X105961904Y-112452380D01*
X106342857Y-112452380D01*
X106438095Y-112500000D01*
X106485714Y-112547619D01*
X106533333Y-112642857D01*
X106533333Y-112785714D01*
X106485714Y-112880952D01*
X106438095Y-112928571D01*
X106342857Y-112976190D01*
X105961904Y-112976190D01*
X106866666Y-112452380D02*
X107533333Y-112452380D01*
X107104761Y-113452380D01*
X106513333Y-117252380D02*
X106180000Y-116776190D01*
X105941904Y-117252380D02*
X105941904Y-116252380D01*
X106322857Y-116252380D01*
X106418095Y-116300000D01*
X106465714Y-116347619D01*
X106513333Y-116442857D01*
X106513333Y-116585714D01*
X106465714Y-116680952D01*
X106418095Y-116728571D01*
X106322857Y-116776190D01*
X105941904Y-116776190D01*
X107084761Y-116680952D02*
X106989523Y-116633333D01*
X106941904Y-116585714D01*
X106894285Y-116490476D01*
X106894285Y-116442857D01*
X106941904Y-116347619D01*
X106989523Y-116300000D01*
X107084761Y-116252380D01*
X107275238Y-116252380D01*
X107370476Y-116300000D01*
X107418095Y-116347619D01*
X107465714Y-116442857D01*
X107465714Y-116490476D01*
X107418095Y-116585714D01*
X107370476Y-116633333D01*
X107275238Y-116680952D01*
X107084761Y-116680952D01*
X106989523Y-116728571D01*
X106941904Y-116776190D01*
X106894285Y-116871428D01*
X106894285Y-117061904D01*
X106941904Y-117157142D01*
X106989523Y-117204761D01*
X107084761Y-117252380D01*
X107275238Y-117252380D01*
X107370476Y-117204761D01*
X107418095Y-117157142D01*
X107465714Y-117061904D01*
X107465714Y-116871428D01*
X107418095Y-116776190D01*
X107370476Y-116728571D01*
X107275238Y-116680952D01*
X167473333Y-66552380D02*
X167140000Y-66076190D01*
X166901904Y-66552380D02*
X166901904Y-65552380D01*
X167282857Y-65552380D01*
X167378095Y-65600000D01*
X167425714Y-65647619D01*
X167473333Y-65742857D01*
X167473333Y-65885714D01*
X167425714Y-65980952D01*
X167378095Y-66028571D01*
X167282857Y-66076190D01*
X166901904Y-66076190D01*
X167949523Y-66552380D02*
X168140000Y-66552380D01*
X168235238Y-66504761D01*
X168282857Y-66457142D01*
X168378095Y-66314285D01*
X168425714Y-66123809D01*
X168425714Y-65742857D01*
X168378095Y-65647619D01*
X168330476Y-65600000D01*
X168235238Y-65552380D01*
X168044761Y-65552380D01*
X167949523Y-65600000D01*
X167901904Y-65647619D01*
X167854285Y-65742857D01*
X167854285Y-65980952D01*
X167901904Y-66076190D01*
X167949523Y-66123809D01*
X168044761Y-66171428D01*
X168235238Y-66171428D01*
X168330476Y-66123809D01*
X168378095Y-66076190D01*
X168425714Y-65980952D01*
X167057142Y-78752380D02*
X166723809Y-78276190D01*
X166485714Y-78752380D02*
X166485714Y-77752380D01*
X166866666Y-77752380D01*
X166961904Y-77800000D01*
X167009523Y-77847619D01*
X167057142Y-77942857D01*
X167057142Y-78085714D01*
X167009523Y-78180952D01*
X166961904Y-78228571D01*
X166866666Y-78276190D01*
X166485714Y-78276190D01*
X168009523Y-78752380D02*
X167438095Y-78752380D01*
X167723809Y-78752380D02*
X167723809Y-77752380D01*
X167628571Y-77895238D01*
X167533333Y-77990476D01*
X167438095Y-78038095D01*
X168628571Y-77752380D02*
X168723809Y-77752380D01*
X168819047Y-77800000D01*
X168866666Y-77847619D01*
X168914285Y-77942857D01*
X168961904Y-78133333D01*
X168961904Y-78371428D01*
X168914285Y-78561904D01*
X168866666Y-78657142D01*
X168819047Y-78704761D01*
X168723809Y-78752380D01*
X168628571Y-78752380D01*
X168533333Y-78704761D01*
X168485714Y-78657142D01*
X168438095Y-78561904D01*
X168390476Y-78371428D01*
X168390476Y-78133333D01*
X168438095Y-77942857D01*
X168485714Y-77847619D01*
X168533333Y-77800000D01*
X168628571Y-77752380D01*
X113452380Y-88842857D02*
X112976190Y-89176190D01*
X113452380Y-89414285D02*
X112452380Y-89414285D01*
X112452380Y-89033333D01*
X112500000Y-88938095D01*
X112547619Y-88890476D01*
X112642857Y-88842857D01*
X112785714Y-88842857D01*
X112880952Y-88890476D01*
X112928571Y-88938095D01*
X112976190Y-89033333D01*
X112976190Y-89414285D01*
X113452380Y-87890476D02*
X113452380Y-88461904D01*
X113452380Y-88176190D02*
X112452380Y-88176190D01*
X112595238Y-88271428D01*
X112690476Y-88366666D01*
X112738095Y-88461904D01*
X113452380Y-86938095D02*
X113452380Y-87509523D01*
X113452380Y-87223809D02*
X112452380Y-87223809D01*
X112595238Y-87319047D01*
X112690476Y-87414285D01*
X112738095Y-87509523D01*
X166997142Y-90752380D02*
X166663809Y-90276190D01*
X166425714Y-90752380D02*
X166425714Y-89752380D01*
X166806666Y-89752380D01*
X166901904Y-89800000D01*
X166949523Y-89847619D01*
X166997142Y-89942857D01*
X166997142Y-90085714D01*
X166949523Y-90180952D01*
X166901904Y-90228571D01*
X166806666Y-90276190D01*
X166425714Y-90276190D01*
X167949523Y-90752380D02*
X167378095Y-90752380D01*
X167663809Y-90752380D02*
X167663809Y-89752380D01*
X167568571Y-89895238D01*
X167473333Y-89990476D01*
X167378095Y-90038095D01*
X168330476Y-89847619D02*
X168378095Y-89800000D01*
X168473333Y-89752380D01*
X168711428Y-89752380D01*
X168806666Y-89800000D01*
X168854285Y-89847619D01*
X168901904Y-89942857D01*
X168901904Y-90038095D01*
X168854285Y-90180952D01*
X168282857Y-90752380D01*
X168901904Y-90752380D01*
X117352380Y-88852857D02*
X116876190Y-89186190D01*
X117352380Y-89424285D02*
X116352380Y-89424285D01*
X116352380Y-89043333D01*
X116400000Y-88948095D01*
X116447619Y-88900476D01*
X116542857Y-88852857D01*
X116685714Y-88852857D01*
X116780952Y-88900476D01*
X116828571Y-88948095D01*
X116876190Y-89043333D01*
X116876190Y-89424285D01*
X117352380Y-87900476D02*
X117352380Y-88471904D01*
X117352380Y-88186190D02*
X116352380Y-88186190D01*
X116495238Y-88281428D01*
X116590476Y-88376666D01*
X116638095Y-88471904D01*
X116352380Y-87567142D02*
X116352380Y-86948095D01*
X116733333Y-87281428D01*
X116733333Y-87138571D01*
X116780952Y-87043333D01*
X116828571Y-86995714D01*
X116923809Y-86948095D01*
X117161904Y-86948095D01*
X117257142Y-86995714D01*
X117304761Y-87043333D01*
X117352380Y-87138571D01*
X117352380Y-87424285D01*
X117304761Y-87519523D01*
X117257142Y-87567142D01*
X167007142Y-103052380D02*
X166673809Y-102576190D01*
X166435714Y-103052380D02*
X166435714Y-102052380D01*
X166816666Y-102052380D01*
X166911904Y-102100000D01*
X166959523Y-102147619D01*
X167007142Y-102242857D01*
X167007142Y-102385714D01*
X166959523Y-102480952D01*
X166911904Y-102528571D01*
X166816666Y-102576190D01*
X166435714Y-102576190D01*
X167959523Y-103052380D02*
X167388095Y-103052380D01*
X167673809Y-103052380D02*
X167673809Y-102052380D01*
X167578571Y-102195238D01*
X167483333Y-102290476D01*
X167388095Y-102338095D01*
X168816666Y-102385714D02*
X168816666Y-103052380D01*
X168578571Y-102004761D02*
X168340476Y-102719047D01*
X168959523Y-102719047D01*
M02*
